<svg width="595" height="575" viewBox="0 0 595 575" fill="none" xmlns="http://www.w3.org/2000/svg">
<path fill-rule="evenodd" clip-rule="evenodd" d="M433.874 424.876L434.13 424.934L434.635 425.053C442.839 427.032 450.833 429.82 458.452 433.361C462.717 435.343 467.156 437.622 471.875 437.272C473.227 437.172 474.56 436.855 475.916 436.84C480.511 436.792 484.388 440.142 488.879 441.079C492.774 441.892 496.793 440.836 500.771 440.618C504.749 440.4 509.35 441.413 511.191 444.824C511.447 445.299 511.643 445.841 511.522 446.363C511.359 447.066 510.699 447.508 510.01 447.841L509.872 447.906L509.579 448.037C504.283 450.327 498.629 452.67 492.891 451.998L492.49 451.946L491.893 451.871C486.515 451.283 481.088 452.972 475.659 452.825C464.451 452.522 453.025 451.349 442.255 449.155L441.104 448.916L440.524 448.795C422.057 444.987 412.769 447.746 404.139 447.958L403.863 447.964L403.325 447.971C400.001 447.987 388.964 447.921 385.018 448.92C383.028 449.425 381.706 446.513 382.756 444.805C383.764 443.165 385.787 442.473 387.635 441.761L387.865 441.671L388.05 441.598C389.841 440.871 391.708 439.712 392.054 437.913L392.084 437.724L392.113 437.546C392.543 435.262 395.368 434.247 397.791 433.727L397.987 433.686L399.377 433.402C403.096 432.656 406.888 432.037 410.625 432.598C412.741 432.915 420.823 428.028 423.246 426.015C426.058 423.68 430.201 424.059 433.874 424.876ZM464.776 273.932L464.474 274.027C461.943 274.73 459.524 275.802 457.34 277.224C453.608 279.653 450.462 283.075 446.211 284.504C443.272 285.492 439.961 285.407 437.081 284.271C438.078 286.363 440.848 287.092 443.222 286.855C450.153 286.16 454.877 279.862 461.107 276.849C462.482 276.184 463.928 275.685 465.416 275.337C466.036 276.695 466.653 278.066 467.269 279.448L467.265 279.464C466.791 279.801 466.36 280.193 465.988 280.64C464.56 282.36 464.205 284.967 465.477 286.797C466.754 288.635 469.091 289.195 471.472 289.127L471.473 289.119L472.334 291.156C473.765 294.563 475.186 298.029 476.595 301.555L476.481 301.615C476.139 301.781 475.799 301.949 475.46 302.12C466.204 306.791 457.816 313.313 447.796 316.156C445.936 316.683 443.978 317.08 442.066 316.769C440.155 316.458 438.289 315.308 437.642 313.545C436.924 313.593 436.855 314.615 437.16 315.244C438.865 318.757 444.053 318.739 447.912 317.654C458.227 314.753 466.998 308.308 476.501 303.444L477.197 303.091L478.293 305.909C526.012 431.855 397.288 422.533 360.295 413.285C305.448 399.575 142.537 450.767 106.83 413.285C91.976 397.694 84.5654 377.172 83.2717 354.215C94.1233 349.878 103.565 342.288 114.628 338.271C121.575 335.749 129.089 334.693 136.493 335.199C140.206 335.452 144.004 336.136 147.125 338.095C150.245 340.055 152.562 343.519 152.216 347.097C151.975 349.589 150.525 351.808 148.997 353.831C147.937 355.235 146.809 356.608 145.44 357.735C142.829 359.885 139.437 361.034 136.02 361.345C132.506 361.665 128.773 361.074 125.959 359.017C123.145 356.961 121.497 353.246 122.591 350.006C123.036 348.691 123.885 347.53 124.885 346.539C126.926 344.516 129.83 343.11 132.732 343.477C135.633 343.844 138.281 346.372 138.051 349.188C137.822 352.004 134.055 354.116 131.669 352.482C132.041 351.245 130.154 350.084 129.15 350.931C128.273 351.67 128.567 353.159 129.458 353.881C130.35 354.603 131.594 354.74 132.758 354.748C134.654 354.762 136.647 354.478 138.157 353.371C141.596 350.85 140.478 344.978 136.756 342.861C133.035 340.745 128.079 341.809 124.64 344.332C122.912 345.6 121.423 347.249 120.703 349.226C119.205 353.341 121.489 358.131 125.235 360.569C128.981 363.007 133.819 363.416 138.279 362.721C140.81 362.326 143.329 361.582 145.433 360.167C147.513 358.769 149.088 356.789 150.542 354.785C152.461 352.14 154.291 349.205 154.325 345.976C154.362 342.359 152.037 338.984 148.945 336.941C145.852 334.898 142.085 334.02 138.359 333.628C127.148 332.448 115.761 335.366 105.766 340.41C98.12 344.268 91.0664 349.39 83.195 352.657C82.3949 334.567 85.3404 315.015 91.3902 295.204L91.8742 295.109C99.3477 293.606 106.967 292.78 114.6 292.645C119.664 292.555 124.795 292.779 129.653 294.164C131.692 294.745 133.695 295.533 135.813 295.71C139.877 296.05 144.014 294.114 147.96 295.113C149.95 295.618 151.272 292.706 150.222 290.998C149.172 289.29 147.021 288.609 145.113 287.865C143.206 287.12 141.15 285.888 140.893 283.917C140.572 281.444 137.517 280.399 134.991 279.879L134.065 279.689C130.198 278.902 126.246 278.207 122.353 278.791C120.237 279.108 118.013 279.79 116.021 279.03C113.048 277.896 112.155 274.221 109.732 272.208C107.233 270.133 103.683 270.201 100.346 270.816C113.084 241.053 132.236 211.819 155.63 187.194L155.643 187.208C155.777 187.225 155.912 187.24 156.045 187.255C164.875 188.222 173.924 187.287 182.341 184.537C188.359 182.57 194.886 185.288 200.353 188.413C205.82 191.537 211.377 195.25 217.727 195.43C222.275 195.559 226.625 193.837 231.017 192.691C249.701 187.813 269.344 193.301 288.442 196.342C294.323 197.279 300.942 197.816 305.68 194.326C304.248 191.303 300.82 189.556 297.42 189.028C294.02 188.5 290.552 188.97 287.116 189.185C275.126 189.934 262.937 187.48 252.257 182.166C246.395 179.25 239.446 179.687 232.887 179.018C226.328 178.349 219.038 175.762 216.749 169.792C214.73 164.523 209.024 161.103 203.231 160.563C197.439 160.022 191.647 161.978 186.667 164.885C181.687 167.791 177.371 171.622 172.937 175.26C171.308 176.597 169.605 177.94 167.572 178.581C166.425 178.943 165.225 179.064 164.015 179.126L163.608 179.137C246.144 99.201 374.79 77.6134 464.776 273.932ZM467.904 280.879C468.052 281.214 468.202 281.554 468.353 281.896L470.824 287.604C469.431 287.53 468.104 287.119 467.261 286.087C466.052 284.607 466.44 282.285 467.823 280.954L467.904 280.879ZM140.718 228.612L140.258 228.848C139.553 229.214 138.875 229.593 137.889 230.168L135.558 231.537C132.499 233.314 130.834 234.111 128.728 234.709C127.798 234.972 127.123 235.061 126.506 234.961C125.821 234.849 125.246 234.45 125.062 233.949L124.901 233.51L124.42 233.543C123.549 233.602 123.365 234.511 123.679 235.157C124.506 236.862 126.779 237.203 129.136 236.54C131.528 235.867 133.39 234.993 136.783 233.064L138.957 231.816C141.769 230.21 143.246 229.471 145.112 228.793C148.067 227.72 151.263 227.271 154.411 227.486C156.253 227.612 157.652 227.959 158.762 228.656C160.032 229.454 160.824 230.785 160.704 232.024C160.626 232.826 160.228 233.589 159.414 234.667C158.863 235.397 158.438 235.875 157.959 236.27C156.975 237.08 155.647 237.573 154.19 237.706C152.655 237.845 151.238 237.545 150.23 236.809C149.147 236.017 148.605 234.643 148.977 233.544C149.125 233.105 149.417 232.676 149.831 232.264C150.67 231.433 151.756 230.982 152.728 231.105C153.731 231.231 154.574 232.104 154.505 232.948L154.492 233.044C154.374 233.672 153.619 234.149 153.035 234.062L152.973 234.049L152.972 234.035C152.766 233.196 151.581 232.661 150.825 233.297C150.136 233.879 150.283 234.963 150.97 235.519C151.45 235.908 152.032 236.036 152.817 236.042C153.929 236.049 154.846 235.843 155.568 235.314C157.415 233.96 156.939 230.863 154.893 229.7C153.12 228.692 150.703 229.051 148.886 230.384C147.97 231.056 147.287 231.878 146.948 232.81C146.217 234.818 147.232 237.219 149.175 238.484C150.841 239.568 153.033 239.882 155.339 239.522C156.669 239.315 157.798 238.93 158.731 238.303C159.592 237.724 160.254 236.995 161.123 235.796C162.305 234.167 162.879 232.967 162.893 231.597C162.911 229.874 161.866 228.191 160.263 227.132C158.942 226.259 157.327 225.788 155.341 225.579C150.575 225.077 145.509 226.194 140.718 228.612Z" fill="#22C55E"/>
<path fill-rule="evenodd" clip-rule="evenodd" d="M93.3343 341.113C93.9821 342.877 95.8474 344.026 97.7589 344.338C99.6705 344.649 101.628 344.252 103.488 343.724C110.129 341.84 116.052 338.341 121.986 334.835L121.986 334.835L121.986 334.835C125.007 333.05 128.03 331.264 131.152 329.689C141.147 324.645 152.534 321.727 163.745 322.907C167.471 323.299 171.238 324.177 174.331 326.22C177.423 328.263 179.748 331.638 179.711 335.255C179.677 338.484 177.847 341.418 175.928 344.063C174.474 346.068 172.899 348.048 170.819 349.446C168.715 350.861 166.196 351.605 163.665 352C159.205 352.695 154.367 352.286 150.621 349.848C146.875 347.41 144.591 342.62 146.089 338.505C146.809 336.528 148.298 334.879 150.026 333.611C153.465 331.088 158.421 330.024 162.142 332.14C165.864 334.257 166.982 340.128 163.543 342.65C162.033 343.757 160.04 344.041 158.144 344.027C156.98 344.019 155.736 343.882 154.845 343.16C153.953 342.438 153.659 340.949 154.536 340.21C155.54 339.363 157.427 340.524 157.055 341.761C159.441 343.395 163.208 341.283 163.437 338.467C163.667 335.651 161.019 333.123 158.118 332.756C155.216 332.389 152.312 333.795 150.271 335.818C149.271 336.809 148.422 337.97 147.977 339.285C146.883 342.525 148.531 346.24 151.345 348.296C154.159 350.353 157.892 350.944 161.406 350.624C164.823 350.313 168.215 349.164 170.826 347.014C172.195 345.887 173.323 344.513 174.383 343.11C175.911 341.087 177.361 338.868 177.602 336.375C177.948 332.797 175.631 329.334 172.511 327.374C169.39 325.414 165.592 324.731 161.879 324.478C154.475 323.972 146.961 325.028 140.014 327.55C134.196 329.662 128.826 332.763 123.465 335.859C117.081 339.545 110.709 343.224 103.605 345.222C99.7456 346.307 94.5582 346.325 92.8526 342.812C92.5474 342.184 92.6169 341.161 93.3343 341.113Z" fill="#64FCD9"/>
<path fill-rule="evenodd" clip-rule="evenodd" d="M276.308 380.974C268.743 390.305 248.092 383.098 239.221 377.648C230.351 372.197 233.757 366.918 233.757 364.336C233.757 361.754 233.147 358.596 231.664 356.364C230.18 354.132 206.72 344.56 206.72 334.046C206.72 324.241 213.752 315.268 223.589 311.204C239.221 304.746 246.869 308.852 261.314 314.524C275.759 320.196 274.571 334.046 274.571 334.046C274.571 334.046 286.418 368.504 276.308 380.974Z" fill="#E7EAEE"/>
<path d="M266.99 386.141C235.033 384.126 205.103 364.292 191.032 336.522C176.962 308.752 178.969 274.146 195.553 247.7C212.136 221.255 242.586 203.585 274.511 201.153C282.768 200.523 291.201 200.865 299.115 203.222C307.71 205.783 315.436 210.634 324.069 213.069C335.94 216.418 348.563 213.891 359.234 207.858C367.168 203.371 374.338 197.523 382.859 194.187C392.815 190.29 404.475 191.743 413.986 196.567C423.497 201.391 431.031 209.289 436.836 218.016C454.12 244.001 456.683 276.314 458.757 307.13C459.896 324.062 460.945 341.612 454.677 357.465C448.988 371.852 437.763 383.509 426.05 393.966C413.629 405.053 400.262 415.307 385.312 422.952C356.173 437.852 322.086 442.162 289.243 439.317C256.401 436.472 224.572 426.805 193.925 415.059C176.819 408.503 158.376 426.178 140.367 422.514C129.24 420.251 121.442 410.418 110.868 406.38C99.5043 402.041 85.4381 405.535 77.6553 414.629C84.4667 398.716 107.785 392.095 122.438 401.913C129.853 406.881 139.794 406.571 148.561 404.495C157.327 402.418 165.717 398.786 174.67 397.679C187.485 396.095 200.303 399.792 213.182 400.781C228.936 401.991 244.687 399.137 260.214 396.295C276.939 393.235 293.663 390.174 310.387 387.114C318.456 385.637 326.663 384.115 333.927 380.416C342.108 376.249 348.761 369.35 352.48 361.175C324.625 383.708 282.762 384.894 266.99 386.141Z" fill="white"/>
<path fill-rule="evenodd" clip-rule="evenodd" d="M278.688 381.74C271.123 391.07 250.472 383.864 241.601 378.413C232.731 372.963 236.137 367.684 236.137 365.102C236.137 362.52 235.527 359.362 234.044 357.13C232.56 354.898 209.1 345.326 209.1 334.812C209.1 325.006 216.132 316.034 225.969 311.97C241.601 305.512 249.249 309.618 263.694 315.29C278.139 320.962 276.951 334.812 276.951 334.812C276.951 334.812 288.798 369.27 278.688 381.74Z" fill="#E7EAEE"/>
<path fill-rule="evenodd" clip-rule="evenodd" d="M310.038 338.193C310.27 339.142 311.365 340.093 312.195 339.536C316.529 336.625 320.88 333.705 325.575 331.373C328.6 329.872 331.838 328.566 334.193 326.197C331.337 327.54 327.964 327.335 324.853 326.715C321.742 326.094 318.693 325.087 315.522 324.906C312.806 324.752 310.053 325.222 307.557 326.267C306.055 326.895 304.579 327.794 303.81 329.189C303.04 330.583 303.223 332.557 304.567 333.458C306.017 334.43 308.349 333.974 309.362 335.369C309.942 336.168 309.806 337.243 310.038 338.193Z" fill="#E7EAEE"/>
<path fill-rule="evenodd" clip-rule="evenodd" d="M351.376 247.865C357.86 259.077 366.114 267.082 360.858 272.172C356.3 276.586 357.891 268.907 352.72 267.26C349.287 266.166 341.963 268.422 335.553 268.162C326.722 267.805 325.499 273.42 318.924 273.121C308.692 272.657 294.768 266.175 290.489 264.579C285.351 262.664 286.89 256.026 290.489 252.878C291.814 251.719 296.154 255.111 296.633 253.559C298.414 247.789 294.55 242.641 297.5 241.871C298.857 241.517 303.807 243.08 305.681 244.934C307.882 247.11 310.097 250.35 314.644 249.033C323.062 246.595 321.981 241.281 328.561 241.281C335.14 241.281 343.739 245.934 347.882 247.302C352.026 248.671 344.892 236.654 351.376 247.865Z" fill="#E7EAEE"/>
<path fill-rule="evenodd" clip-rule="evenodd" d="M284.517 304.404C285.377 306.879 287.143 309.048 289.143 310.807C291.014 312.453 293.995 313.857 293.623 316.274C297.331 312.491 302.877 310.462 308.252 310.922C310.074 311.079 311.865 311.503 313.689 311.64C320.39 312.142 326.678 308.785 332.496 305.538C336.675 303.206 340.854 300.874 345.033 298.542C346.002 296.599 345.252 294.173 343.756 292.572C342.26 290.972 340.156 290.04 338.072 289.265C335.813 288.425 333.46 287.711 331.04 287.663C328.678 287.617 325.588 287.815 324.735 285.689C323.602 282.867 320.838 280.716 317.741 280.248C314.643 279.779 311.33 281.01 309.357 283.362C307.315 285.796 303.978 286.733 300.929 287.804C297.235 289.103 293.683 290.779 290.354 292.797C287.562 294.489 284.675 296.849 284.517 300.028C284.45 301.38 284.071 303.12 284.517 304.404Z" fill="#E7EAEE"/>
<path fill-rule="evenodd" clip-rule="evenodd" d="M293.236 233.033C297.623 234.242 301.736 230.292 306.273 229.827C309.98 229.446 313.644 231.441 317.338 230.955C318.672 230.779 320.246 229.579 319.544 228.471C319.134 227.823 318.21 227.744 317.424 227.737C313.153 227.697 308.883 227.656 304.612 227.616C303.223 227.603 301.717 227.551 300.639 226.706C298.395 224.946 295.663 223.869 292.907 223.024C289.139 221.869 285.241 221.104 281.302 220.778C277.002 220.422 272.655 220.59 268.398 221.278C266.728 223.371 265.058 225.465 263.388 227.558C261.338 230.128 258.589 232.983 255.274 232.453C250.948 231.761 246.4 232.427 242.482 234.325C246.423 233.069 250.786 233.082 254.719 234.363C257.215 235.176 259.524 236.477 262.047 237.209C268.322 239.027 275.06 237.135 281.192 234.91C285.069 233.504 289.253 231.936 293.236 233.033Z" fill="#E7EAEE"/>
<path d="M367.693 280.791C367.793 281.626 368.347 282.338 368.907 282.982C371.731 286.23 375.361 288.974 379.607 290.06C387.464 292.071 395.91 287.929 401.04 281.843C406.17 275.757 408.66 268.043 410.94 260.512C411.598 258.338 412.576 255.833 414.836 255.223C417.279 254.565 419.314 252.642 420.048 250.298C420.782 247.954 420.191 245.265 418.534 243.411C416.661 241.314 412.623 240.711 411.195 243.112C410.64 244.046 409.285 244.262 408.225 243.929C407.166 243.595 406.308 242.855 405.411 242.216C399.856 238.26 392.444 238.035 385.542 237.966C383.357 237.944 381.146 237.925 379.023 238.423C374.634 239.452 371.084 242.565 366.85 244.082C361.436 246.022 355.015 245.071 350.452 241.654C355.407 249.225 359.545 257.295 362.775 265.69C363.011 267.376 367.121 276.036 367.693 280.791Z" fill="white"/>
<path fill-rule="evenodd" clip-rule="evenodd" d="M256.592 250.968C255.447 248.281 253.73 245.122 250.721 245.015C249.9 244.985 249.095 245.207 248.285 245.34C243.965 246.048 238.641 240.806 237.022 240.381C235.402 239.956 233.439 242.904 231.387 243.789C229.335 244.674 227.181 246.088 226.882 248.238C226.643 249.958 227.682 251.766 227.054 253.392C226.162 255.7 222.556 256.094 221.608 258.382C220.78 260.382 222.465 262.476 224.089 263.952C227.713 267.245 231.998 270.721 232.355 275.512C232.489 277.306 234.228 278.524 235.756 279.553C241.388 283.344 246.371 288.03 250.442 293.366C249.511 292.124 249.998 290.314 251.003 289.126C252.008 287.937 253.425 287.155 254.627 286.152C256.983 284.187 258.502 281.386 260.988 279.578C264.117 277.301 268.25 276.94 272.108 276.274C275.966 275.608 280.141 274.278 282.064 270.982C282.252 270.661 282.418 270.305 282.381 269.938C282.276 268.898 280.846 268.663 279.937 268.095C278.232 267.031 278.357 264.649 277.771 262.773C276.92 260.042 274.261 258.121 271.432 257.298C268.604 256.476 265.588 256.571 262.636 256.673C259.627 256.777 257.737 253.656 256.592 250.968Z" fill="#E7EAEE"/>
<path d="M547.983 427.993C547.653 428.269 547.329 427.57 547.579 427.225C547.934 427.125 548.05 427.671 547.969 428.019L547.983 427.993Z" fill="black"/>
<path fill-rule="evenodd" clip-rule="evenodd" d="M420.812 360.046C418.821 360.769 416.395 360.174 415.003 358.622C414.295 357.832 412.931 358.311 412.123 359.007C411.315 359.703 410.519 360.626 409.437 360.62C408.328 360.613 407.48 359.543 407.36 358.479C407.24 357.415 407.655 356.37 408.063 355.375C406.547 355.654 404.953 355.928 403.485 355.467C402.018 355.005 400.767 353.536 401.154 352.093C401.296 351.566 401.634 351.105 402.024 350.711C403.315 349.403 405.258 348.725 407.117 348.934C408.022 349.035 408.338 347.804 408.261 346.928C408.114 345.258 407.835 343.542 408.32 341.934C408.805 340.325 410.348 338.855 412.069 339.075C414.253 339.355 415.17 341.9 415.412 344.014C415.495 344.736 416.117 345.724 416.7 345.266C418.575 343.791 421.571 343.874 423.355 345.449C424.044 346.058 424.57 346.911 424.522 347.811C424.466 348.86 423.656 349.736 422.753 350.321C421.85 350.907 420.819 351.294 419.94 351.914C421.853 353.15 423.862 355.009 423.469 357.198C423.232 358.516 422.108 359.575 420.812 360.046ZM412.369 352.925C412.416 353.139 412.464 353.352 412.511 353.565C410.912 354.34 410.419 356.275 410.101 357.975C410.578 358.322 411.241 357.87 411.583 357.397C412.33 356.362 412.682 355.116 413.23 353.971C413.778 352.825 414.63 351.698 415.885 351.347C416.407 351.2 416.961 351.201 417.494 351.099C418.63 350.884 419.613 350.224 420.559 349.58C421.087 349.221 421.645 348.825 421.861 348.238C422.345 346.923 420.653 345.639 419.232 345.89C417.811 346.141 416.782 347.311 415.947 348.45C415.112 349.588 414.27 350.833 412.943 351.387C412.559 351.547 412.118 351.641 411.723 351.505C411.329 351.369 411.025 350.94 411.159 350.557C411.293 350.174 411.948 350.06 412.134 350.422C412.466 350.275 412.624 349.843 412.462 349.527C410.776 349.817 409.09 350.107 407.403 350.396C406.477 350.555 405.516 350.728 404.753 351.259C403.99 351.79 403.49 352.791 403.855 353.628C406.302 355.189 409.52 352.251 412.369 352.925ZM416.618 353.083C415.463 353.297 415.027 354.795 415.473 355.846C415.919 356.897 416.917 357.612 417.801 358.362C418.656 359.087 420.144 358.751 420.755 357.824C421.366 356.897 421.17 355.614 420.48 354.74C419.79 353.866 418.695 353.361 417.581 353.133C417.265 353.069 416.936 353.024 416.618 353.083ZM413.533 345.861C413.466 344.23 413.297 342.39 411.985 341.36C411.585 341.045 411.072 341.603 410.909 342.076C410.495 343.282 410.304 344.559 410.347 345.829C410.369 346.464 410.458 347.125 410.825 347.652C411.192 348.18 411.904 348.529 412.524 348.317C413.448 348 413.571 346.807 413.533 345.861L413.533 345.861Z" fill="#FFB61D"/>
<path fill-rule="evenodd" clip-rule="evenodd" d="M411.909 216.499C411.121 215.97 410.332 215.441 409.543 214.912C410.732 214.086 412.488 214.329 413.607 215.241C414.726 216.153 415.269 217.591 415.368 219.002C415.444 220.077 415.197 221.309 414.251 221.882C413.34 222.433 412.159 222.163 411.126 221.876C410.273 221.638 409.42 221.401 408.567 221.164C407.672 220.915 406.883 221.779 406.452 222.576C406.021 223.373 405.525 224.327 404.602 224.446C403.373 224.605 402.646 223.22 401.771 222.372C399.222 219.903 394.135 221.674 391.782 219.031C390.78 217.906 390.635 216.202 391.243 214.839C391.851 213.476 393.124 212.451 394.553 211.904C395.133 211.681 395.756 211.522 396.245 211.147C396.733 210.771 397.045 210.087 396.751 209.555C396.08 208.343 395.396 207.091 395.257 205.723C395.117 204.355 395.658 202.828 396.914 202.181C398.13 201.554 399.698 201.925 400.77 202.761C401.842 203.598 402.511 204.815 403.078 206.028C403.24 206.375 403.415 206.746 403.751 206.946C404.086 207.147 404.63 207.06 404.738 206.694C405.287 204.841 407.882 204.071 409.657 204.955C411.431 205.839 412.326 207.896 412.268 209.822C412.248 210.509 412.116 211.215 411.717 211.783C411.437 212.183 411.041 212.492 410.645 212.786C409.455 213.67 408.208 214.481 406.913 215.214C406.856 217.594 408.853 219.859 411.296 220.186C412.126 220.297 413.118 220.124 413.512 219.41C414.1 218.344 412.937 217.189 411.909 216.499ZM407.389 212.552C408.767 212.38 409.995 211.37 410.389 210.084C410.784 208.798 410.323 207.306 409.264 206.438C409.055 206.267 408.811 206.113 408.537 206.097C408.216 206.077 407.919 206.246 407.646 206.409C405.669 207.587 403.448 209.171 403.494 211.414C403.543 213.781 402.721 216.157 401.209 218.022C400.663 218.696 401.076 219.708 401.692 220.322C402.309 220.937 403.121 221.395 403.539 222.149C403.831 222.675 404.707 222.609 405.121 222.166C405.534 221.722 405.605 221.08 405.634 220.484C405.743 218.255 405.549 216.013 405.059 213.833C404.951 213.351 405.391 212.895 405.874 212.735C406.357 212.575 406.883 212.615 407.389 212.552M401.458 214.044C400.629 214.486 399.729 213.666 398.921 213.191C396.675 211.871 393.445 213.582 392.827 216.049C392.585 217.013 393.299 218.008 394.214 218.459C395.129 218.911 396.195 218.947 397.222 218.974C397.907 218.992 398.655 218.991 399.193 218.582C399.545 218.313 399.751 217.909 399.941 217.517C400.49 216.378 400.996 215.219 401.458 214.044ZM398.662 203.602C397.857 203.555 397.17 204.267 397.009 205.03C396.848 205.793 397.088 206.579 397.372 207.308C398.316 209.728 399.794 211.953 401.678 213.792C402.13 210.489 402.414 206.667 399.983 204.301C399.621 203.949 399.175 203.632 398.662 203.602V203.602Z" fill="#E7EAEE"/>
<path fill-rule="evenodd" clip-rule="evenodd" d="M231.633 291.759C229.451 292.912 228.047 295.315 228.152 297.714C228.198 298.753 228.385 300.047 227.471 300.597C226.717 298.084 227.071 295.281 228.427 293.016C228.762 292.457 229.176 291.912 229.766 291.608C230.356 291.304 231.157 291.305 231.633 291.759V291.759Z" fill="#00160A"/>
<ellipse cx="404.6" cy="263.048" rx="2.77667" ry="2.68026" fill="#FFB61D"/>
<path fill-rule="evenodd" clip-rule="evenodd" d="M316.854 347.966C317.076 347.05 317.511 346.058 318.418 345.715C320.419 344.958 321.986 347.896 324.127 348.054C325.297 348.141 326.345 347.367 327.501 347.177C329.418 346.862 331.415 348.505 331.397 350.382C331.381 351.974 330.166 353.362 330.058 354.951C328.976 354.77 327.76 355.198 327.203 356.112C326.645 357.025 326.935 358.38 327.906 358.875C328.878 359.37 330.308 358.679 330.342 357.619C330.36 357.047 330.027 356.521 329.94 355.955C329.852 355.388 330.222 354.657 330.809 354.743C331.943 355.447 332.556 356.857 332.282 358.132C332.009 359.407 330.867 360.465 329.536 360.677C329.127 360.742 328.691 360.738 328.33 360.934C327.713 361.267 327.546 362.028 327.307 362.67C326.843 363.917 325.839 365.005 324.538 365.428C323.238 365.85 321.663 365.517 320.789 364.496C319.915 363.475 319.928 361.797 320.93 360.892C320.313 360.589 319.679 361.215 319.098 361.58C317.635 362.498 315.452 361.575 314.839 359.998C314.227 358.421 314.973 356.561 316.305 355.474C316.731 355.126 317.272 354.682 317.103 354.169C316.446 352.173 316.359 350.005 316.854 347.966ZM323.268 355.512C322.742 357.614 322.216 359.722 321.942 361.869C321.861 362.508 321.849 363.267 322.374 363.666C322.939 364.097 323.791 363.83 324.35 363.392C325.85 362.215 326.177 359.873 325.053 358.355C324.262 357.286 324.982 355.757 325.986 354.87C326.991 353.983 328.285 353.364 329.015 352.254C329.745 351.145 329.439 349.257 328.095 349.051C327.048 348.89 325.901 349.169 325.172 349.912C324.512 350.584 324.263 351.528 324.038 352.428C323.781 353.456 323.525 354.484 323.268 355.512ZM321.436 353.982C322.422 353.452 322.588 352.127 322.335 351.066C322.046 349.849 321.361 348.724 320.401 347.888C320.173 347.69 319.912 347.5 319.606 347.472C318.78 347.396 318.39 348.42 318.279 349.215C318.115 350.384 317.961 351.625 318.459 352.703C318.956 353.781 320.368 354.556 321.436 353.982M316.858 359.641C317.545 360.454 318.961 359.981 319.676 359.192C320.391 358.403 320.84 357.349 321.775 356.816C322.18 356.584 321.861 355.908 321.397 355.835C320.932 355.762 320.495 356.032 320.072 356.233C319.234 356.632 318.275 356.796 317.512 357.316C316.749 357.837 316.268 358.942 316.858 359.641Z" fill="#FFB61D"/>
<path d="M546.76 415.614C547.122 415.486 547.253 416.093 547.058 416.414C546.691 416.539 546.559 415.932 546.743 415.6L546.76 415.614Z" fill="black"/>
<path fill-rule="evenodd" clip-rule="evenodd" d="M420.048 250.298C420.987 247.958 420.191 245.265 418.534 243.411C416.661 241.314 412.623 240.711 411.195 243.112C410.64 244.046 409.285 244.262 408.225 243.929C407.166 243.595 406.308 242.855 405.411 242.216C399.856 238.26 392.444 238.035 385.542 237.966C383.357 237.944 381.146 237.925 379.023 238.423C374.634 239.452 371.084 242.565 366.85 244.082C361.436 246.022 355.015 245.071 350.452 241.654C352.297 244.473 357.367 253.584 357.367 253.584C357.367 253.584 356.454 249.328 357.818 248.937C360.325 248.219 363.514 249.669 365.977 249.335C375.156 248.091 380.013 243.773 383.579 243.411C408.225 240.907 417.607 256.378 420.048 250.298Z" fill="#E7EAEE"/>
<path fill-rule="evenodd" clip-rule="evenodd" d="M426.05 387.839C413.629 398.927 400.261 409.181 385.312 416.825C356.173 431.725 322.086 436.035 289.243 433.19C256.401 430.345 224.572 420.679 193.925 408.933C185.258 405.611 263.188 429.387 325.65 423.608C386.467 417.981 431.828 382.681 426.05 387.839Z" fill="#E7EAEE"/>
<ellipse cx="374.453" cy="277.981" rx="3.96666" ry="3.82893" fill="#FFB61D"/>
<path d="M249.839 299.07C251.925 302.757 255.406 305.609 257.254 309.413C259.465 313.963 286.376 355.449 287.309 355.598C289.25 355.909 292.573 352.824 292.225 353.864C292.09 353.661 322.839 370.121 316.595 374.139C309.423 378.754 294.608 383.708 275.934 383.708C268.72 382.152 264.228 375.396 260.528 369.219C249.318 350.505 238.08 331.652 230.479 311.319C229.596 308.959 228.662 306.441 226.597 304.918C224.874 303.648 222.63 303.278 220.475 303.053C215.08 302.489 209.629 303.051 204.241 303.331C197.952 303.657 197.952 300.669 199.668 299.757C202.289 298.364 205.141 297.824 207.191 296.036C204.308 297.278 203.223 297.86 200.093 298.252C196.962 298.645 198.412 296.178 198.565 295.015C198.088 296.827 195.377 298.025 193.87 296.614C191.912 294.782 194.678 290.61 196.732 289.501C197.081 289.312 208.524 283.599 209.317 283.137C208.309 282.909 198.248 289.731 194.943 288.702C192.793 288.033 195.048 284.395 197.13 282.123C203.574 275.093 201.869 277.493 204.238 275.178C205.559 273.888 207.696 273.944 209.569 274.088C212.396 274.306 223.755 273.485 233.141 279.441C241.956 285.036 248.882 297.38 249.839 299.07Z" fill="white"/>
<path fill-rule="evenodd" clip-rule="evenodd" d="M427.28 156.014C425.755 156.415 424.481 157.613 424.026 159.075C423.694 160.145 423.783 161.291 423.907 162.402C424.112 164.221 424.46 166.149 425.747 167.491C427.144 166.239 427.155 164.123 426.84 162.309C426.794 162.042 426.743 161.773 426.692 161.503C426.395 159.938 426.091 158.337 426.649 156.863C428.126 159.107 428.591 161.948 427.902 164.522L432.292 162.776C433.116 162.448 434.095 162.92 434.603 163.627C435.111 164.334 435.262 165.216 435.399 166.066C435.727 168.091 435.796 170.66 433.927 171.633C433.382 171.916 432.62 172.546 433.13 172.885C434.657 173.897 435.062 176.15 434.05 177.648C433.038 179.146 430.822 179.712 429.136 178.972C427.449 178.233 426.437 176.324 426.709 174.556L422.853 176.938C422.499 177.157 422.102 177.384 421.688 177.319C421.17 177.238 420.852 176.743 420.602 176.298C419.616 174.541 418.622 172.397 419.615 170.643C417.958 170.236 416.451 169.156 415.737 167.656C415.024 166.156 415.2 164.251 416.321 163.005C417.442 161.759 419.505 161.346 420.967 162.201C421.652 162.602 422.167 161.489 422.195 160.717C422.27 158.612 422.968 156.271 424.896 155.284C425.782 154.831 427.264 155.047 427.28 156.014ZM429.992 170.034C431.512 170.863 433.727 169.981 434.199 168.358C434.67 166.734 433.254 164.869 431.508 164.814C429.406 164.748 427.938 166.786 427.143 168.666C426.824 169.42 425.665 169.22 424.915 168.847C424.166 168.475 423.101 168.12 422.61 168.781C421.962 169.652 420.974 170.282 419.89 170.516C420.518 170.999 420.749 171.76 420.98 172.525C421.082 172.862 421.185 173.201 421.322 173.516C421.769 174.547 423.281 175.392 424.001 174.516C425.264 172.98 426.733 171.603 428.362 170.431C428.838 170.088 429.474 169.752 429.992 170.034ZM418.694 163.638C417.913 163.44 417.108 164.112 416.959 164.879C416.81 165.645 417.158 166.426 417.626 167.062C417.838 167.352 418.082 167.628 418.389 167.822C419.18 168.322 420.237 168.194 421.118 167.863C421.472 167.73 421.815 167.569 422.157 167.407C422.667 167.166 423.175 166.926 423.721 166.782C422.446 165.257 420.657 164.138 418.694 163.638ZM432.78 176.426C433.114 175.784 432.899 174.979 432.446 174.411C431.993 173.842 431.34 173.459 430.703 173.089L429.661 172.483C429.261 172.251 428.784 172.011 428.35 172.177C427.623 172.456 427.758 173.48 428.038 174.185C428.439 175.198 428.916 176.258 429.842 176.871C430.769 177.484 432.277 177.395 432.78 176.426ZM350.364 169.846C350.967 170.406 351.052 171.44 350.479 172.029C349.907 172.618 348.748 172.553 348.318 171.86C348.086 171.488 348.081 171.043 348.076 170.6C348.074 170.461 348.072 170.322 348.064 170.185C348.027 169.615 347.535 168.3 347.406 167.997C345.806 166.733 345.199 164.652 344.875 162.681C344.633 161.208 344.511 159.647 345.11 158.273C345.709 156.899 347.236 155.799 348.746 156.109C350.498 156.469 351.337 158.36 351.9 160C352.361 161.34 352.663 163.142 351.413 163.876C351.199 162.088 350.943 160.197 349.783 158.788C349.046 157.894 347.529 157.309 346.741 158.162C346.403 158.528 346.321 159.048 346.283 159.538C345.988 163.327 347.527 167.212 350.364 169.846ZM347.44 178.668L347.21 178.703C345.156 179.009 343.022 179.328 341.41 177.541C339.737 175.688 339.154 171.648 340.06 170.595C341.334 169.113 343.368 168.239 345.368 168.366C345.454 168.566 345.399 169.014 345.344 169.467L345.344 169.467C345.287 169.928 345.23 170.393 345.321 170.605C343.935 169.909 342.039 170.387 341.183 171.648C341.076 171.805 340.982 171.995 341.04 172.173C341.496 173.574 341.993 175.033 343.079 176.06C344.165 177.088 346.031 177.507 347.21 176.579C347.587 176.283 347.853 175.887 348.12 175.49L348.12 175.49C348.335 175.17 348.55 174.85 348.825 174.58C349.44 173.975 350.685 173.778 351.07 174.54C350.138 175.443 349.253 176.391 348.42 177.38C348.221 177.616 348.023 177.966 348.229 178.196C348.734 178.759 348.831 179.524 348.926 180.281C348.953 180.491 348.98 180.7 349.015 180.905C349.176 181.844 349.791 182.91 350.777 182.887C351.609 182.868 352.169 182.086 352.587 181.391L354.156 178.778C354.612 178.831 354.908 179.313 354.899 179.756C354.889 180.199 354.656 180.606 354.421 180.987C353.696 182.16 352.898 183.291 352.031 184.371C351.767 184.7 351.465 185.045 351.045 185.139C350.609 185.238 350.162 185.039 349.787 184.804C347.758 183.529 346.756 180.91 347.44 178.668ZM356.385 162.436C357.082 162.098 358.025 162.107 358.552 162.663C359.714 165.375 358.933 168.751 356.688 170.729C356.634 170.776 356.58 170.823 356.525 170.87C356.155 171.189 355.772 171.518 355.645 171.974C355.499 172.497 355.966 173.184 356.499 173.013C356.869 172.894 356.988 172.491 357.1 172.109C357.124 172.027 357.148 171.945 357.174 171.868C357.499 170.907 358.584 170.246 359.622 170.375C360.955 170.93 363.655 172.429 363.145 176.403C362.689 179.958 360.868 179.791 360.218 179.732C360.141 179.725 360.081 179.719 360.041 179.722C358.279 179.82 357.223 177.968 356.365 176.462L356.317 176.378C355.913 175.669 355 174.903 354.367 175.435C354.121 175.643 354.046 175.98 354 176.293C353.93 176.772 353.909 177.31 354.224 177.687C354.539 178.063 355.306 178.059 355.44 177.593C355.602 179.008 356.403 180.374 357.665 181.111C358.927 181.848 360.64 181.873 361.845 181.053C362.716 180.461 363.256 179.516 363.655 178.563C364.021 177.688 364.297 176.765 364.318 175.822C364.367 173.528 362.876 171.404 360.955 170.052C360.454 169.699 359.855 169.261 359.919 168.666L360.201 166.009C360.337 164.729 360.466 163.393 359.989 162.191C359.513 160.99 358.23 159.98 356.922 160.233C355.876 160.436 355.223 161.293 354.563 162.16C353.963 162.948 353.356 163.744 352.443 164.062C351.434 164.413 351.382 165.754 351.516 166.782C351.56 167.127 351.613 167.492 351.838 167.765C352.063 168.038 352.523 168.161 352.788 167.925C352.721 166.439 353.732 165.134 354.693 163.971C355.179 163.382 355.688 162.775 356.385 162.436ZM265.142 219.867C267.114 218.187 269.843 217.633 272.458 217.363C281.644 216.416 291.12 218.283 299.187 222.629C299.346 222.714 299.505 222.801 299.665 222.888C301.139 223.692 302.648 224.515 304.325 224.615C304.851 224.647 305.377 224.605 305.903 224.563C306.363 224.526 306.823 224.49 307.284 224.502C308.386 224.532 309.416 224.69 310.434 224.846C312.343 225.139 314.212 225.426 316.446 224.848C319.647 224.021 320.118 224.832 320.458 226.492C320.799 228.153 319.559 229.831 317.965 230.537C316.372 231.243 314.528 231.17 312.797 230.902C312.296 230.824 311.796 230.732 311.297 230.639C310.07 230.411 308.844 230.183 307.598 230.181C305.133 230.177 302.685 231.041 300.276 231.891C296.871 233.093 293.542 234.269 290.347 232.927C289.217 232.453 287.916 232.789 286.736 233.131L274.254 236.741C271.165 237.634 267.971 238.537 264.767 238.182C262.224 237.901 259.877 236.849 257.53 235.798C255.165 234.739 252.801 233.679 250.235 233.408C248.074 233.18 245.885 233.526 243.707 233.87C240.934 234.309 238.179 234.744 235.525 233.988C235.669 233.327 236.417 232.992 237.072 232.756C241.073 231.312 245.141 229.853 249.4 229.543C250.102 229.492 250.818 229.469 251.537 229.446C254.14 229.362 256.773 229.278 258.855 227.858C260.377 226.819 261.321 225.246 262.268 223.665C263.094 222.287 263.924 220.905 265.142 219.867ZM292.442 231.502C295.031 232.215 297.523 231.133 300.064 230.03C301.83 229.263 303.619 228.486 305.48 228.295C307.294 228.109 309.098 228.492 310.9 228.874C312.78 229.273 314.659 229.671 316.545 229.423C317.878 229.247 319.453 228.047 318.751 226.939C318.341 226.292 317.417 226.213 316.631 226.205L303.819 226.085C302.43 226.071 300.924 226.02 299.846 225.174C297.602 223.415 294.87 222.337 292.114 221.492C288.346 220.338 284.448 219.572 280.509 219.246C276.208 218.89 271.862 219.059 267.605 219.746L262.594 226.026C260.544 228.596 257.795 231.452 254.48 230.922C250.155 230.229 245.607 230.895 241.688 232.794C245.629 231.537 249.993 231.55 253.925 232.832C255.078 233.207 256.191 233.687 257.304 234.166L257.304 234.167C258.6 234.725 259.896 235.284 261.254 235.677C267.528 237.495 274.267 235.603 280.399 233.379L280.619 233.299C284.434 231.914 288.535 230.426 292.442 231.502ZM256.704 283.134C258.917 280.564 261.07 278.065 264.368 277.944C269.5 277.757 274.538 275.986 278.673 273.047C279.676 272.334 280.675 271.487 281.038 270.337C281.401 269.187 280.838 267.695 279.622 267.432C277.267 266.923 276.369 264.553 275.485 262.223C275.202 261.477 274.921 260.735 274.594 260.059C273.199 257.18 270.291 255.03 267.048 254.48C265.818 254.272 264.567 254.281 263.316 254.291C262.207 254.299 261.097 254.308 260.001 254.165C257.668 253.86 255.175 252.539 254.749 250.304C253.67 244.653 247.014 240.645 241.282 242.193C239.649 242.634 238.263 241.619 236.832 240.571C235.702 239.744 234.545 238.897 233.218 238.731C232.065 238.586 230.92 238.983 229.829 239.373C227.37 240.252 224.844 241.17 222.905 242.875C220.966 244.58 219.729 247.283 220.552 249.686C221.043 251.119 219.819 252.566 218.525 253.413C218.258 253.588 217.98 253.757 217.701 253.925C216.629 254.574 215.543 255.231 215.001 256.309C214.185 257.933 214.934 259.891 215.983 261.386C217.137 263.03 218.673 264.506 220.195 265.969C223.119 268.779 225.993 271.541 226.014 275.356L209.569 274.088C207.696 273.944 205.559 273.888 204.238 275.178C203.449 275.95 203.111 276.198 202.774 276.445C202.1 276.941 201.426 277.436 197.13 282.123C195.048 284.395 192.793 288.033 194.943 288.702C197.112 289.377 202.192 286.671 205.712 284.795C207.555 283.813 208.97 283.059 209.316 283.137C208.772 283.454 203.205 286.248 199.657 288.028C198.039 288.841 196.841 289.442 196.732 289.501C194.678 290.61 191.912 294.782 193.87 296.614C195.377 298.025 198.088 296.827 198.565 295.015C198.535 295.244 198.454 295.524 198.368 295.823C198.019 297.04 197.579 298.567 200.093 298.252C202.905 297.9 204.067 297.394 206.364 296.395C206.624 296.282 206.898 296.162 207.191 296.036C205.912 297.152 204.321 297.782 202.669 298.436C201.673 298.83 200.654 299.233 199.668 299.757C197.952 300.669 197.952 303.657 204.241 303.331C205.311 303.275 206.383 303.208 207.456 303.142H207.456H207.456H207.457H207.457H207.457H207.457H207.457H207.458C211.792 302.872 216.151 302.601 220.475 303.053C222.63 303.278 224.874 303.648 226.597 304.918C228.653 306.434 229.588 308.935 230.466 311.286L230.479 311.319C238.08 331.652 249.318 350.505 260.528 369.219C264.228 375.396 268.72 382.152 275.934 383.708C256.817 361.249 241.826 335.528 231.866 308.097C230.713 304.922 227.596 302.708 224.273 301.689C220.951 300.671 217.4 300.665 213.914 300.669C211.704 300.671 209.909 300.981 208.171 301.28C205.885 301.674 203.7 302.05 200.803 301.689C198.47 301.399 200.445 300.611 203.249 299.492C206.075 298.364 209.743 296.9 210.695 295.271C209.599 293.589 206.901 294.312 205.177 295.397C203.453 296.482 198.116 298.159 199.403 296.036C200.998 293.407 203.837 291.986 206.697 290.554C207.601 290.101 208.507 289.647 209.377 289.154C210.327 288.615 209.614 287.014 208.524 286.856C207.435 286.698 206.432 287.399 205.569 288.06C204.618 288.79 203.532 289.846 202.411 290.937C199.779 293.499 196.952 296.251 195.216 295.397C191.442 293.541 203.437 287.411 210.081 284.017C210.514 283.796 210.924 283.586 211.305 283.39C209.797 280.884 205.752 282.118 203.477 284.01C203.358 284.108 203.238 284.208 203.117 284.309C200.918 286.148 198.334 288.308 195.668 287.345C194.084 286.772 196.378 284.955 198.672 283.138L198.672 283.138C199.819 282.23 200.965 281.321 201.627 280.568C202.74 279.303 203.888 278.01 205.396 277.214C207.241 276.24 209.427 276.112 211.53 276.094C216.765 276.048 222.005 276.546 227.13 277.577C234.589 282.348 241.037 288.583 245.967 295.79C257.475 312.617 268.746 329.593 280.016 346.569C280.146 346.765 280.382 347.142 280.693 347.638C282.349 350.279 286.125 356.303 287.309 356.446C288.619 356.604 289.976 355.549 290.936 354.73L337.002 327.051C344.49 322.551 352.777 317.871 361.525 318.966C375.696 320.739 390.072 322.35 404.236 320.515C418.399 318.679 432.535 313.016 441.712 302.442C425.13 315.192 403.362 321.476 382.251 319.606C379.378 319.352 376.481 318.956 373.581 318.559L373.58 318.559C364.834 317.364 356.06 316.164 347.808 318.833C345.686 319.519 343.535 320.452 341.378 321.387C335.278 324.031 329.143 326.691 323.55 323.826C318.471 321.225 312.117 322.571 307.063 325.219C302.009 327.866 295.644 331.481 300.069 336.063C304.494 340.646 295.254 338.557 290.094 336.107C284.934 333.657 283.725 325.112 288.996 321.651C286.637 324.239 286.716 329.424 290.163 330.325C293.61 331.226 297.234 329.584 300.069 327.487C303.278 325.114 302.83 322.06 302.43 319.329C302.002 316.409 301.628 313.86 305.837 312.91C308.72 312.259 311.693 312.46 314.669 312.662C317.385 312.846 320.104 313.03 322.762 312.568C327.147 311.806 330.875 309.402 334.626 306.984C336.97 305.473 339.323 303.956 341.851 302.83C348.427 299.901 355.882 299.735 363.148 299.572C363.575 299.563 364.002 299.553 364.427 299.543C377.715 299.229 391.261 298.15 403.502 293.15C415.742 288.151 426.624 278.631 430.065 266.238C432.898 256.038 430.219 244.564 423.127 236.522C416.035 228.481 404.728 224.097 393.844 225.168C388.159 225.728 382.665 227.658 377.206 229.576C369.716 232.207 362.29 234.816 354.518 233.836C343.216 232.412 334.544 223.802 326.84 215.694C336.025 217.053 345.6 215.863 354.129 212.302C358.474 210.488 362.538 208.082 366.594 205.68L366.595 205.68C372.137 202.399 377.666 199.127 383.876 197.383C399.289 193.056 416.455 199.324 427.712 210.369C438.969 221.413 445.041 236.513 448.246 251.694C450.334 261.587 451.324 271.643 452.315 281.702L452.315 281.703C452.845 287.081 453.375 292.46 454.073 297.815C454.424 300.513 454.817 303.229 455.211 305.953C457.511 321.861 459.856 338.078 454.329 353.035C449.609 365.81 439.666 376.043 429.908 385.803C416.652 399.062 402.99 412.382 386.242 421.224C370.749 429.403 353.253 433.391 335.788 435.914C322.089 437.894 308.213 439.028 294.379 438.341C265.438 436.904 237.61 427.585 210.377 418.022C200.59 414.586 190.365 411.049 180.023 412.234C174.711 412.843 169.548 414.68 164.424 416.505C156.818 419.212 149.295 421.89 141.492 420.475C134.32 419.175 128.485 414.651 122.656 410.13C116.739 405.543 110.828 400.959 103.527 399.753C110.054 398.711 116.488 401.608 122.813 404.456C130.117 407.745 137.276 410.968 144.261 407.982C169.659 397.123 198.862 400.669 226.366 404.422L260.182 409.035C264.922 409.682 269.615 408.65 274.328 407.613L274.329 407.613C277.102 407.003 279.884 406.391 282.687 406.119C289.951 405.414 297.101 406.993 304.273 408.577C308.065 409.415 311.864 410.254 315.689 410.757C344.342 414.527 374.493 396.882 384.28 370.615C385.559 367.18 386.589 363.542 387.62 359.897C390.595 349.382 393.585 338.816 402.641 332.944C403.588 332.33 404.605 331.761 405.626 331.19C408.835 329.395 412.076 327.583 413.24 324.309C404.667 327.023 397.175 332.804 392.544 340.279C389.288 345.536 387.479 351.43 385.668 357.33C384.84 360.028 384.012 362.728 383.044 365.368C374.109 389.753 349.743 410.121 322.994 408.594C317.612 408.287 312.317 407.142 307.03 406C300.418 404.571 293.819 403.145 287.081 403.362C283.322 403.484 279.614 404.117 275.905 404.75C272.877 405.267 269.848 405.784 266.789 406.024C256.72 406.812 246.69 404.579 236.853 402.362C259.005 397.089 281.453 392.975 304.066 390.042C320.712 387.884 339.886 384.917 348.409 370.948C354.488 360.984 364.382 354.091 374.268 347.204C384.368 340.168 394.459 333.137 400.465 322.845C371.949 350.479 330.881 374.228 271.668 385.904C271.258 385.981 270.854 386.06 270.456 386.141C270.861 386.063 271.265 385.984 271.668 385.904C275.761 385.134 280.444 384.539 285.538 383.891L285.538 383.891C305.136 381.399 330.823 378.133 352.48 361.175C348.761 369.35 342.108 376.249 333.927 380.416C326.663 384.115 318.456 385.637 310.387 387.114L260.214 396.295C244.687 399.137 228.936 401.991 213.182 400.781C208.807 400.445 204.439 399.797 200.075 399.149L200.075 399.149C191.594 397.89 183.132 396.633 174.67 397.679C169.141 398.363 163.827 400.009 158.506 401.658C155.211 402.679 151.913 403.7 148.561 404.495C139.795 406.571 129.853 406.881 122.438 401.913C107.785 392.095 84.4667 398.716 77.6553 414.629C85.4381 405.535 99.5043 402.041 110.868 406.38C115.508 408.152 119.613 411.039 123.699 413.913C128.926 417.589 134.122 421.244 140.367 422.514C148.856 424.241 157.441 421.227 165.937 418.244C175.465 414.899 184.882 411.593 193.925 415.059C224.572 426.805 256.401 436.472 289.243 439.317C322.086 442.162 356.173 437.852 385.312 422.952C400.262 415.307 413.629 405.053 426.05 393.966C437.763 383.509 448.988 371.852 454.677 357.465C460.945 341.612 459.896 324.062 458.757 307.13C456.683 276.314 454.12 244.001 436.836 218.016C431.031 209.289 423.497 201.391 413.986 196.567C404.475 191.743 392.815 190.29 382.859 194.187C377.355 196.342 372.414 199.545 367.467 202.753C364.756 204.51 362.043 206.269 359.234 207.858C348.563 213.891 335.94 216.418 324.069 213.069C319.641 211.82 315.452 209.936 311.262 208.051C307.282 206.26 303.301 204.47 299.115 203.222C291.201 200.865 282.768 200.523 274.511 201.153C242.586 203.585 212.136 221.255 195.553 247.7C178.969 274.146 176.962 308.752 191.032 336.522C205.103 364.292 235.033 384.126 266.99 386.141C263.023 383.766 258.422 382.876 253.802 381.981C251.195 381.476 248.581 380.97 246.072 380.195C239.117 378.048 232.126 371.905 233.878 365.062C235.38 359.193 229.997 353.801 224.56 350.801C223.501 350.217 222.406 349.656 221.307 349.094C216.759 346.768 212.136 344.403 209.708 340.136C204.478 330.943 212.63 320.21 220.22 312.706C211.776 317.386 205.498 325.567 203.32 334.727C208.398 343.228 216.506 350.005 225.949 353.64C230.797 359.746 233.151 367.647 232.406 375.307C204.771 359.013 185.942 329.55 183.256 298.4C182.615 290.964 182.897 283.218 186.128 276.439C193.37 261.243 200.81 245.799 212.45 233.409C230.086 214.636 257.055 204.426 283.21 206.621C309.365 208.816 334.104 223.365 348.119 244.794C343.008 242.071 337.726 239.294 331.924 238.663C326.122 238.032 319.603 240.077 316.771 245.006C314.627 248.738 308.784 245.788 305.696 242.735C302.607 239.682 296.329 237.242 294.756 241.23L296.332 249.956C290.332 247.099 283.039 255.749 287.157 260.84C288.555 262.569 290.674 263.581 292.719 264.537C304.172 269.889 317.507 275.309 329.139 270.327C335.107 267.771 341.659 266.495 348.188 266.616C349.761 266.645 351.402 266.774 352.75 267.557C353.806 268.17 354.568 269.112 355.333 270.059C355.847 270.696 356.363 271.334 356.972 271.877C358.485 273.226 361.364 273.669 362.297 271.896C364.756 276.13 367.263 280.501 367.886 285.317C368.51 290.133 366.799 295.563 362.475 298.04C358.15 300.516 351.336 298.43 350.468 293.649C349.641 289.091 344.793 287.938 339.712 286.73C335.41 285.707 330.94 284.644 328.603 281.442C326.148 278.078 321.107 277.402 317.006 278.522C314.001 279.343 311.314 280.909 308.627 282.475L308.627 282.475C307.646 283.047 306.666 283.619 305.67 284.154C304.089 285.004 302.445 285.775 300.802 286.547C296.651 288.496 292.501 290.444 289.36 293.652C284.976 298.131 283.759 306.395 288.996 309.919C290.954 311.236 305.67 322.845 297.577 326.78C285.513 332.646 288.82 322.167 290.091 320.304C284.27 320.973 281.614 328.8 284.769 333.569C287.923 338.337 294.989 341.314 300.722 340.136C303.562 339.552 302.727 338.085 301.743 336.358C300.741 334.598 299.585 332.566 302.002 330.921C301.539 332.621 303.293 333.208 305.236 333.857C306.758 334.366 308.395 334.913 309.177 336.063C310.586 338.138 308.398 340.7 306.406 342.268L291.778 353.788C291.58 353.89 291.329 354.04 291.042 354.211L291.041 354.212C289.972 354.848 288.416 355.776 287.309 355.598C286.376 355.449 276.606 338.936 274.621 330.453C274.392 329.474 274.213 328.469 274.035 327.465L274.035 327.465L274.035 327.465L274.035 327.465L274.035 327.465L274.035 327.465L274.035 327.465L274.035 327.464L274.035 327.464C273.391 323.845 272.753 320.252 269.766 318.013C268.278 316.897 266.518 316.059 264.774 315.227C261.696 313.761 258.665 312.317 257.254 309.413C256.261 307.37 254.797 305.601 253.331 303.83C252.069 302.304 250.805 300.777 249.839 299.071C247.752 295.384 247.698 289.873 251.518 287.861C253.557 286.787 255.146 284.943 256.704 283.134ZM246.755 244.249C249.763 244.357 251.481 247.515 252.625 250.203C253.77 252.89 255.661 256.012 258.669 255.907C261.621 255.805 264.637 255.71 267.465 256.533C270.294 257.355 272.953 259.276 273.805 262.007C273.968 262.531 274.076 263.095 274.184 263.658C274.463 265.111 274.742 266.562 275.97 267.329C276.232 267.493 276.537 267.629 276.841 267.764C277.593 268.099 278.34 268.432 278.414 269.173C278.451 269.539 278.285 269.895 278.098 270.216C276.174 273.512 271.999 274.843 268.141 275.509C267.586 275.605 267.024 275.694 266.461 275.784L266.46 275.784C263.113 276.318 259.7 276.863 257.021 278.812C255.681 279.787 254.622 281.051 253.561 282.316C252.654 283.398 251.746 284.481 250.661 285.386C250.242 285.735 249.798 286.058 249.353 286.38C248.522 286.983 247.691 287.585 247.036 288.36C246.031 289.548 245.544 291.358 246.476 292.601C242.404 287.265 237.421 282.578 231.789 278.787C230.261 277.759 228.522 276.541 228.389 274.747C228.059 270.329 224.392 267.03 220.981 263.962C220.693 263.702 220.406 263.444 220.123 263.187C218.498 261.71 216.814 259.616 217.642 257.616C218.112 256.481 219.236 255.812 220.359 255.144C221.499 254.466 222.638 253.789 223.087 252.626C223.442 251.708 223.265 250.733 223.087 249.748V249.748C222.95 248.988 222.812 248.222 222.916 247.472C223.093 246.193 223.634 245.859 224.979 245.03L224.98 245.03C225.895 244.466 227.184 243.672 228.984 242.193C231.715 239.951 235.616 241.644 238.994 243.111C241.115 244.031 243.029 244.862 244.318 244.574C245.115 244.396 245.933 244.22 246.755 244.249ZM267.905 318.834C269.824 320.944 271.829 323.229 272.21 326.013C272.405 327.432 272.145 328.905 271.476 330.182L262.798 317.131C262.704 316.99 262.607 316.817 262.677 316.664C262.79 316.414 263.174 316.491 263.429 316.609L266.996 318.258C267.325 318.41 267.664 318.569 267.905 318.834ZM359.247 254.306C359.17 255.007 359.429 255.735 359.936 256.242C360.597 256.562 361.296 256.254 362.007 255.94C362.338 255.795 362.671 255.648 363.004 255.563C363.614 255.407 364.257 255.466 364.885 255.526L372.595 256.264C373.069 255.555 372.097 254.769 371.273 254.487C367.426 253.174 363.135 253.109 359.247 254.306ZM401.26 267.716C398.122 272.362 393.214 275.865 387.693 277.4L387.644 278.595C393.794 277.27 399.379 273.641 402.966 268.64C403.38 268.064 403.718 267.166 403.125 266.762C402.478 266.322 401.692 267.076 401.26 267.716ZM388.859 255.881C388.106 255.679 387.09 255.492 386.725 256.159C388.034 257.307 389.505 258.522 391.274 258.573C392.539 258.61 393.726 258.035 394.851 257.475C397.498 256.158 400.167 254.827 402.458 252.991C402.371 252.217 401.324 251.857 400.559 252.105C399.923 252.31 399.435 252.777 398.952 253.237C398.892 253.295 398.832 253.353 398.771 253.41L398.707 253.47L398.657 253.516C396.108 255.861 392.251 256.792 388.859 255.881ZM381.836 271.662C382.04 271.988 382.293 272.332 382.677 272.418C382.951 272.479 383.235 272.392 383.502 272.307L387.671 270.978C387.671 270.503 387.145 270.174 386.656 270.127C386.382 270.1 386.108 270.132 385.833 270.163C385.617 270.188 385.401 270.212 385.185 270.209C383.516 270.184 382.355 268.55 381.938 266.99C381.793 266.446 381.698 265.887 381.604 265.329C381.429 264.284 381.253 263.243 380.744 262.315C379.783 262.27 379.433 263.526 379.495 264.453C379.663 266.991 380.473 269.486 381.836 271.662ZM369.992 262.772C370.971 261.751 372.435 260.393 373.554 261.269C371.649 264.874 367.497 267.259 363.305 267.156C365.625 271.387 367.121 276.036 367.693 280.791C367.794 281.626 368.347 282.338 368.907 282.982C371.731 286.23 375.361 288.974 379.607 290.06C387.464 292.071 395.91 287.929 401.04 281.843C406.17 275.757 408.66 268.043 410.94 260.512C411.598 258.338 412.576 255.833 414.836 255.223C417.279 254.565 419.314 252.642 420.048 250.298C420.782 247.954 420.191 245.265 418.534 243.411C416.661 241.314 412.623 240.711 411.195 243.113C410.64 244.046 409.285 244.262 408.225 243.929C407.368 243.659 406.642 243.122 405.922 242.589L405.921 242.588C405.751 242.463 405.582 242.338 405.411 242.216C399.856 238.26 392.444 238.035 385.542 237.966C383.357 237.944 381.146 237.925 379.023 238.423C376.55 239.003 374.344 240.244 372.132 241.488C370.417 242.453 368.699 243.419 366.85 244.082C361.436 246.022 355.015 245.071 350.452 241.654C355.407 249.225 359.545 257.295 362.775 265.69C365.463 265.769 368.165 264.677 369.992 262.772ZM296.225 241.623C296.512 242.514 296.939 243.366 297.365 244.215C298.03 245.543 298.692 246.863 298.812 248.318C299.01 250.704 296.418 253.435 294.323 252.154C292.149 250.824 288.939 252.072 287.925 254.355C286.911 256.639 287.871 259.448 289.804 261.089C291.263 262.328 293.145 262.977 294.977 263.599C297.192 264.351 299.688 265.364 302.28 266.417C308.821 269.074 315.973 271.979 320.767 271.547C323.168 271.331 327.642 268.8 329.165 267.888C332.069 266.149 335.433 264.339 338.72 265.244C342.86 266.383 347.42 266.033 351.322 264.277C353.225 263.42 354.989 265.667 355.768 267.549C356.548 269.431 358.099 271.749 360.089 271.103C361.187 270.747 361.778 269.529 361.743 268.412C361.708 267.294 361.188 266.251 360.678 265.248L351.42 247.009C348.949 247.677 346.756 246.294 344.5 244.87C342.965 243.902 341.401 242.915 339.699 242.542C338.845 242.354 337.966 242.328 337.087 242.301C336.173 242.274 335.259 242.246 334.374 242.037C333.426 241.814 332.543 241.391 331.662 240.968C330.587 240.453 329.516 239.94 328.337 239.793C325.805 239.478 323.389 240.927 321.544 242.631C320.938 243.191 320.364 243.787 319.789 244.382C318.616 245.598 317.445 246.813 316.009 247.717C313.872 249.065 310.84 249.549 308.86 247.993C308.094 247.392 307.583 246.57 307.07 245.746L307.07 245.745C306.816 245.338 306.562 244.929 306.277 244.547C304.078 241.6 299.744 240.339 296.225 241.623ZM288.019 303.696C288.88 306.172 290.646 308.34 292.645 310.099C293.082 310.484 293.58 310.855 294.081 311.229C295.726 312.457 297.411 313.714 297.126 315.567C300.834 311.784 306.38 309.755 311.754 310.215C312.634 310.29 313.506 310.428 314.379 310.566H314.379C315.313 310.714 316.248 310.861 317.191 310.932C323.893 311.435 330.18 308.078 335.999 304.83L348.536 297.834C349.504 295.891 348.755 293.465 347.258 291.865C345.762 290.264 343.659 289.332 341.574 288.557C339.315 287.717 336.963 287.004 334.542 286.956C334.313 286.951 334.077 286.949 333.837 286.947C331.602 286.926 329.008 286.901 328.237 284.981C327.105 282.159 324.34 280.009 321.243 279.54C318.146 279.071 314.833 280.302 312.86 282.654C311.037 284.827 308.183 285.806 305.423 286.754C305.09 286.868 304.759 286.982 304.431 287.097C300.737 288.395 297.186 290.072 293.856 292.09C291.064 293.782 288.177 296.142 288.019 299.32C288.002 299.671 287.964 300.047 287.924 300.435C287.811 301.544 287.689 302.745 288.019 303.696ZM414.229 284.668C419.444 280.744 424.009 275.855 426.698 270.024C429.386 264.193 430.062 257.357 427.726 251.386C426.336 247.836 423.962 244.72 421.345 241.888C416.801 236.971 410.856 232.545 404.031 232.453C401.755 232.423 399.507 232.881 397.28 233.336L384.369 235.979C391.684 235.847 399.022 236.998 405.918 239.358L405.974 239.377C407.526 239.909 409.223 240.49 410.761 239.932C414.539 238.563 419.21 240.083 421.36 243.379C423.51 246.676 422.908 251.399 419.995 254.095C419.406 254.64 418.743 255.103 418.081 255.566C417.348 256.077 416.616 256.589 415.985 257.211C414.098 259.068 413.328 261.664 412.579 264.188C412.492 264.478 412.406 264.768 412.319 265.055C407.854 279.746 396.209 293.19 380.696 296.376C392.775 296.004 404.698 291.841 414.229 284.668ZM400.15 231.712C404.102 231.291 408.207 230.907 411.968 232.152C415.409 233.291 418.224 235.683 420.941 238.018L424.873 241.398C419.01 232.383 408.179 226.584 397.152 226.558C391.85 226.545 386.614 227.773 381.618 229.488C380.029 230.034 378.459 230.628 376.889 231.223C376.353 231.426 375.818 231.629 375.282 231.83C369.447 234.016 363.401 235.993 357.144 236.14C350.887 236.288 344.313 234.365 340.178 229.83C339.996 229.63 339.816 229.424 339.635 229.216L339.634 229.216C338.754 228.205 337.855 227.175 336.578 226.766C340.24 231.321 343.977 235.947 348.866 239.259C353.755 242.571 360.06 244.429 365.791 242.806C368.385 242.071 370.692 240.689 373.002 239.305C374.054 238.674 375.106 238.043 376.187 237.473C383.459 233.637 391.913 232.59 400.15 231.712ZM311.625 337.427C311.857 338.377 312.952 339.328 313.782 338.77C318.116 335.859 322.466 332.939 327.162 330.608C327.666 330.357 328.177 330.112 328.688 329.867L328.689 329.866C331.243 328.64 333.818 327.404 335.78 325.431C332.924 326.774 329.551 326.57 326.44 325.949C325.447 325.751 324.46 325.513 323.473 325.276L323.473 325.276L323.473 325.276C321.369 324.769 319.267 324.263 317.109 324.141C314.392 323.986 311.64 324.457 309.143 325.501C307.641 326.13 306.166 327.028 305.396 328.423C304.626 329.817 304.809 331.792 306.154 332.693C306.779 333.112 307.569 333.265 308.346 333.416C309.37 333.615 310.373 333.81 310.949 334.603C311.333 335.132 311.403 335.781 311.474 336.435C311.51 336.77 311.546 337.106 311.625 337.427ZM376.912 292.563C375.693 291.855 374.707 290.838 373.737 289.834L368.979 284.905L369.534 293.057C369.588 293.845 369.639 294.657 369.379 295.406C369.119 296.155 368.468 296.835 367.652 296.898C367.223 296.931 367.213 297.623 367.583 297.836C367.952 298.05 368.423 297.932 368.834 297.808L380.057 294.432C380.752 294.222 381.471 294.001 382.014 293.533C380.266 293.792 378.428 293.443 376.912 292.563ZM400.667 245.495C396.956 245.257 393.26 245.99 389.619 246.72C388.666 246.91 387.706 247.103 386.812 247.474C384.727 248.34 383.195 250.081 381.742 251.763C381.526 252.013 381.298 252.302 381.332 252.625C381.392 253.176 382.196 253.371 382.697 253.103C383.114 252.881 383.376 252.481 383.634 252.088C383.687 252.007 383.74 251.927 383.793 251.849C385.703 249.063 389.464 248.208 392.862 247.578C395.741 247.044 398.705 246.509 401.582 247.053C402.084 247.148 402.367 246.396 402.058 246.003C401.748 245.609 401.178 245.527 400.667 245.495Z" fill="#00160A"/>
</svg>
