<svg width="549" height="158" viewBox="0 0 549 158" fill="none" xmlns="http://www.w3.org/2000/svg">
<g clip-path="url(#clip0_113_92)">
<path d="M414.647 200.815H348.037C348.037 164.032 377.863 134.206 414.647 134.206V200.815Z" fill="#FFC957"/>
<path d="M281.609 200.815V134.206C318.393 134.206 348.219 164.032 348.219 200.815H281.609Z" fill="#AAF683"/>
<path d="M514.561 67.2845C533.142 67.2845 548.204 52.2223 548.204 33.6422C548.204 15.0622 533.142 0 514.561 0C495.981 0 480.919 15.0622 480.919 33.6422C480.919 52.2223 495.981 67.2845 514.561 67.2845Z" fill="#59B9FF"/>
<path fill-rule="evenodd" clip-rule="evenodd" d="M414.647 67.9595C451.43 67.9595 481.256 97.7858 481.256 134.569C481.256 171.352 451.43 201.178 414.647 201.178V67.9595Z" fill="#FFC957"/>
<path fill-rule="evenodd" clip-rule="evenodd" d="M547.866 201.178C511.083 201.178 481.257 171.352 481.257 134.569C481.257 97.7858 511.083 67.9595 547.866 67.9595V201.178Z" fill="#FFC957"/>
</g>
<defs>
<clipPath id="clip0_113_92">
<rect width="549" height="201" fill="white"/>
</clipPath>
</defs>
</svg>
