<svg width="509" height="453" viewBox="0 0 509 453" fill="none" xmlns="http://www.w3.org/2000/svg">
<g clip-path="url(#clip0_113_66)">
<path d="M42.2194 85.458H-24.3901C-24.3901 48.6748 5.43618 18.8485 42.2194 18.8485V85.458Z" fill="#FFC957"/>
<path d="M-24.3901 85.4582H42.2194C42.2194 122.241 12.3931 152.068 -24.3901 152.068V85.4582Z" fill="#FFC957"/>
<path d="M175.412 85.458H108.803C108.803 48.6748 138.629 18.8485 175.412 18.8485V85.458Z" fill="#FFC957"/>
<path d="M175.412 152.068H108.803C108.803 115.284 138.629 85.4582 175.412 85.4582V152.068Z" fill="#59B9FF"/>
<path d="M108.829 85.458H42.219C42.219 48.6748 72.0453 18.8485 108.829 18.8485V85.458Z" fill="#59B9FF"/>
<path d="M108.829 152.068H42.219C42.219 115.284 72.0453 85.4582 108.829 85.4582V152.068Z" fill="#FF9B85"/>
<path fill-rule="evenodd" clip-rule="evenodd" d="M175.412 -47.7351C175.412 -10.9519 145.586 18.8744 108.803 18.8744C72.0197 18.8744 42.1934 -10.9519 42.1934 -47.7351H175.412Z" fill="#59B9FF"/>
<path fill-rule="evenodd" clip-rule="evenodd" d="M-91 285.287C-91 248.503 -61.1737 218.677 -24.3905 218.677C12.3927 218.677 42.219 248.503 42.219 285.287H-91Z" fill="#59B9FF"/>
<path fill-rule="evenodd" clip-rule="evenodd" d="M42.219 152.067C42.219 188.851 12.3927 218.677 -24.3905 218.677C-61.1737 218.677 -91 188.851 -91 152.067H42.219Z" fill="#59B9FF"/>
<path d="M308.631 -114.345H175.412V18.8743H308.631V-114.345Z" fill="#AAF683"/>
<path fill-rule="evenodd" clip-rule="evenodd" d="M42.219 18.8484H-91L-24.3905 -47.7351L42.219 18.8484Z" fill="#AAF683"/>
<path d="M242.022 1.35231C269.132 1.35231 291.109 -20.6249 291.109 -47.7352C291.109 -74.8455 269.132 -96.8228 242.022 -96.8228C214.912 -96.8228 192.934 -74.8455 192.934 -47.7352C192.934 -20.6249 214.912 1.35231 242.022 1.35231Z" fill="#3C315B"/>
</g>
<defs>
<clipPath id="clip0_113_66">
<rect width="600" height="739" fill="white" transform="translate(-91 -286)"/>
</clipPath>
</defs>
</svg>
