<svg width="108" height="230" viewBox="0 0 108 230" fill="none" xmlns="http://www.w3.org/2000/svg">
<path id="Union" fill-rule="evenodd" clip-rule="evenodd" d="M70.403 171.93C78.7217 169.222 86.4891 164.424 92.8721 157.567C112.932 136.016 111.723 102.285 90.1729 82.2255C77.9499 70.8481 61.8083 66.3125 46.4653 68.4498C46.3184 55.572 41.1012 42.7751 30.9302 33.3076C17.4612 20.7704 -1.20994 17.3159 -17.5389 22.6741C-19.6732 19.3878 -22.241 16.3077 -25.2392 13.5169C-44.9508 -4.83118 -75.8043 -3.72581 -94.1523 15.9858C-112.5 35.6974 -111.395 66.5508 -91.6834 84.8989C-85.1409 90.9888 -77.371 94.9356 -69.2383 96.7704C-73.0598 113.222 -68.2169 131.206 -54.9669 143.54C-47.5412 150.452 -38.5342 154.603 -29.2103 156.039C-37.8425 175.753 -33.6125 199.592 -16.9671 215.086C4.0979 234.694 37.0698 233.512 56.6777 212.447C67.2549 201.084 71.7826 186.256 70.403 171.93Z" fill="url(#paint0_linear_53_606)"/>
<defs>
<linearGradient id="paint0_linear_53_606" x1="47.7754" y1="42.7609" x2="-68.2208" y2="167.377" gradientUnits="userSpaceOnUse">
<stop stop-color="#22C55E" stop-opacity="0.7"/>
<stop offset="1" stop-color="#044622" stop-opacity="0.7"/>
</linearGradient>
</defs>
</svg>
