<svg width="31" height="30" viewBox="0 0 31 30" fill="none" xmlns="http://www.w3.org/2000/svg">
<path d="M15.5 4.6875C15.5 4.43886 15.4012 4.2004 15.2254 4.02459C15.0496 3.84877 14.8111 3.75 14.5625 3.75C14.3139 3.75 14.0754 3.84877 13.8996 4.02459C13.7238 4.2004 13.625 4.43886 13.625 4.6875V13.125H5.1875C4.93886 13.125 4.7004 13.2238 4.52459 13.3996C4.34877 13.5754 4.25 13.8139 4.25 14.0625C4.25 14.3111 4.34877 14.5496 4.52459 14.7254C4.7004 14.9012 4.93886 15 5.1875 15H13.625V23.4375C13.625 23.6861 13.7238 23.9246 13.8996 24.1004C14.0754 24.2762 14.3139 24.375 14.5625 24.375C14.8111 24.375 15.0496 24.2762 15.2254 24.1004C15.4012 23.9246 15.5 23.6861 15.5 23.4375V15H23.9375C24.1861 15 24.4246 14.9012 24.6004 14.7254C24.7762 14.5496 24.875 14.3111 24.875 14.0625C24.875 13.8139 24.7762 13.5754 24.6004 13.3996C24.4246 13.2238 24.1861 13.125 23.9375 13.125H15.5V4.6875Z" fill="#F8F8F8"/>
</svg>
