<svg width="25" height="24" viewBox="0 0 25 24" fill="none" xmlns="http://www.w3.org/2000/svg">
<g clip-path="url(#clip0_113_451)">
<path d="M12.5043 19.9097C19.5997 19.9097 24.5 14.1754 24.5 12.384C24.5 10.5836 19.5911 4.85828 12.5043 4.85828C5.50571 4.85786 0.5 10.5831 0.5 12.3836C0.5 14.175 5.49671 19.9097 12.5043 19.9097ZM12.5043 18.5216C6.72629 18.5216 2.03686 13.6213 2.03686 12.3831C2.03686 11.3383 6.72629 6.24514 12.5043 6.24514C18.2651 6.24514 22.9631 11.3383 22.9631 12.3831C22.9631 13.6217 18.2651 18.5216 12.5043 18.5216ZM12.5043 17.301C15.2356 17.301 17.4307 15.0617 17.4307 12.3831C17.4307 9.63471 15.2356 7.46571 12.5043 7.46571C9.75586 7.46571 7.55171 9.63428 7.56929 12.3831C7.57786 15.0617 9.75586 17.301 12.5043 17.301ZM12.5043 14.0169C11.5914 14.0169 10.8534 13.2789 10.8534 12.3831C10.8534 11.4789 11.591 10.7503 12.5043 10.7503C13.4086 10.7503 14.1466 11.4789 14.1466 12.3831C14.1466 13.2789 13.409 14.0169 12.5043 14.0169Z" fill="#00160A"/>
</g>
<defs>
<clipPath id="clip0_113_451">
<rect width="24" height="24" fill="white" transform="translate(0.5)"/>
</clipPath>
</defs>
</svg>
