<svg width="25" height="26" viewBox="0 0 25 26" fill="none" xmlns="http://www.w3.org/2000/svg">
<path d="M22.7141 10.9599H21.875V10.9167H12.5V15.0833H18.387C17.5282 17.5089 15.2204 19.25 12.5 19.25C9.04848 19.25 6.25004 16.4516 6.25004 13C6.25004 9.54845 9.04848 6.75001 12.5 6.75001C14.0933 6.75001 15.5427 7.35105 16.6464 8.33282L19.5927 5.38647C17.7323 3.65261 15.2438 2.58334 12.5 2.58334C6.74744 2.58334 2.08337 7.24741 2.08337 13C2.08337 18.7526 6.74744 23.4167 12.5 23.4167C18.2526 23.4167 22.9167 18.7526 22.9167 13C22.9167 12.3016 22.8448 11.6198 22.7141 10.9599Z" fill="#FFC107"/>
<path d="M3.28442 8.15157L6.70682 10.6615C7.63286 8.36876 9.87557 6.75001 12.5 6.75001C14.0933 6.75001 15.5428 7.35105 16.6464 8.33282L19.5928 5.38647C17.7323 3.65261 15.2438 2.58334 12.5 2.58334C8.49901 2.58334 5.02922 4.8422 3.28442 8.15157Z" fill="#FF3D00"/>
<path d="M12.5 23.4167C15.1906 23.4167 17.6354 22.387 19.4839 20.7125L16.2599 17.9844C15.1789 18.8064 13.8581 19.2511 12.5 19.25C9.79062 19.25 7.4901 17.5224 6.62344 15.1115L3.22656 17.7286C4.95052 21.1021 8.45156 23.4167 12.5 23.4167Z" fill="#4CAF50"/>
<path d="M22.7141 10.9599H21.875V10.9167H12.5V15.0833H18.387C17.9761 16.2377 17.2361 17.2464 16.2583 17.9849L16.2599 17.9838L19.4839 20.712C19.2557 20.9193 22.9167 18.2083 22.9167 13C22.9167 12.3016 22.8448 11.6198 22.7141 10.9599Z" fill="#1976D2"/>
</svg>
