<svg width="31" height="30" viewBox="0 0 31 30" fill="none" xmlns="http://www.w3.org/2000/svg">
<path d="M25.5498 8.525L18.3498 3.4875C16.3873 2.1125 13.3748 2.1875 11.4873 3.65L5.2248 8.5375C3.9748 9.5125 2.9873 11.5125 2.9873 13.0875V21.7125C2.9873 24.9 5.5748 27.5 8.7623 27.5H22.2373C25.4248 27.5 28.0123 24.9125 28.0123 21.725V13.25C28.0123 11.5625 26.9248 9.4875 25.5498 8.525ZM16.4373 22.5C16.4373 23.0125 16.0123 23.4375 15.4998 23.4375C14.9873 23.4375 14.5623 23.0125 14.5623 22.5V18.75C14.5623 18.2375 14.9873 17.8125 15.4998 17.8125C16.0123 17.8125 16.4373 18.2375 16.4373 18.75V22.5Z" fill="#E7EAEE"/>
</svg>
