<svg width="40" height="40" viewBox="0 0 40 40" fill="none" xmlns="http://www.w3.org/2000/svg">
<rect opacity="0.25" x="0.388885" y="0.840332" width="39" height="39" rx="19.5" fill="#0A110B"/>
<path fill-rule="evenodd" clip-rule="evenodd" d="M16.3889 26.8403H13.3889V17.8403H16.3889V26.8403V26.8403Z" fill="#0A110B"/>
<path fill-rule="evenodd" clip-rule="evenodd" d="M14.88 15.8403H14.8629C13.9677 15.8403 13.3889 15.1734 13.3889 14.3398C13.3889 13.4886 13.9853 12.8403 14.8975 12.8403C15.8098 12.8403 16.3716 13.4886 16.3889 14.3398C16.3889 15.1734 15.8098 15.8403 14.88 15.8403V15.8403Z" fill="#0A110B"/>
<path fill-rule="evenodd" clip-rule="evenodd" d="M27.3887 26.8401H24.4408V22.1357C24.4408 20.954 24.0142 20.1477 22.947 20.1477C22.1325 20.1477 21.6474 20.6913 21.4343 21.2163C21.3564 21.4045 21.3373 21.6666 21.3373 21.9294V26.8403H18.3889C18.3889 26.8403 18.4277 18.8722 18.3889 18.047H21.3373V19.2925C21.7285 18.6938 22.4293 17.8403 23.9945 17.8403C25.9345 17.8403 27.3889 19.0974 27.3889 21.7983L27.3887 26.8401V26.8401Z" fill="#0A110B"/>
</svg>
