<svg width="36" height="36" viewBox="0 0 36 36" fill="none" xmlns="http://www.w3.org/2000/svg">
<g clip-path="url(#clip0_261_306)">
<path fill-rule="evenodd" clip-rule="evenodd" d="M12.9341 5.02664C13.3828 4.87719 13.8679 4.87719 14.3166 5.02664L22.3753 7.71289L30.0884 5.14185C30.3734 5.04689 30.6768 5.021 30.9737 5.06629C31.2706 5.11158 31.5525 5.22677 31.7962 5.40237C32.0399 5.57796 32.2383 5.80894 32.3752 6.07627C32.5121 6.3436 32.5836 6.63963 32.5837 6.93997V26.225C32.5836 26.6841 32.4391 27.1317 32.1705 27.5041C31.902 27.8766 31.5231 28.1551 31.0874 28.3002L23.0666 30.9733C22.6174 31.1235 22.1332 31.1235 21.6841 30.9733L13.6253 28.2871L5.9122 30.8581C5.62726 30.953 5.32383 30.9789 5.02692 30.9337C4.73001 30.8884 4.44811 30.7732 4.20444 30.5976C3.96077 30.422 3.76231 30.191 3.62541 29.9237C3.4885 29.6563 3.41707 29.3603 3.41699 29.06V9.77497C3.41703 9.3158 3.56157 8.86828 3.83011 8.49583C4.09866 8.12337 4.4776 7.84486 4.91324 7.69976L12.9341 5.02664ZM12.167 25.7V8.35601L6.33366 10.3014V27.6439L12.167 25.6985V25.7ZM15.0837 8.35747V25.7L20.917 27.6454V10.3L15.0837 8.35456V8.35747ZM23.8337 10.3029V27.6454L29.667 25.7V8.35601L23.8337 10.3029Z" fill="#F8F8F8"/>
</g>
<defs>
<clipPath id="clip0_261_306">
<rect width="35" height="35" fill="white" transform="translate(0.5 0.5)"/>
</clipPath>
</defs>
</svg>
