<svg width="40" height="40" viewBox="0 0 40 40" fill="none" xmlns="http://www.w3.org/2000/svg">
<rect opacity="0.25" x="0.5" y="0.840332" width="39" height="39" rx="19.5" fill="#0A110B"/>
<path fill-rule="evenodd" clip-rule="evenodd" d="M19.8122 17.7665L19.8404 18.2423L19.3708 18.184C17.6612 17.9607 16.1677 17.2033 14.8996 15.9313L14.2796 15.3002L14.12 15.7663C13.7818 16.8052 13.9978 17.9024 14.7023 18.6404C15.0781 19.0482 14.9935 19.1065 14.3454 18.8637C14.12 18.786 13.9227 18.7278 13.9039 18.7569C13.8382 18.8249 14.0636 19.7085 14.2421 20.058C14.4863 20.5435 14.9841 21.0193 15.5289 21.3009L15.9892 21.5242L15.4444 21.5339C14.9184 21.5339 14.8996 21.5436 14.9559 21.7475C15.1438 22.3787 15.8859 23.0486 16.7125 23.3399L17.2949 23.5438L16.7876 23.8546C16.0362 24.3012 15.1532 24.5537 14.2702 24.5731C13.8475 24.5828 13.5 24.6216 13.5 24.6508C13.5 24.7479 14.646 25.2916 15.3129 25.5052C17.3136 26.1364 19.6901 25.8645 21.4748 24.7867C22.7429 24.0196 24.011 22.4952 24.6028 21.0193C24.9222 20.2328 25.2415 18.7957 25.2415 18.1063C25.2415 17.6597 25.2697 17.6014 25.7957 17.0674C26.1057 16.7567 26.3969 16.4168 26.4532 16.3197C26.5472 16.1353 26.5378 16.1353 26.0587 16.3003C25.2603 16.5916 25.1476 16.5528 25.5421 16.1158C25.8333 15.8051 26.1808 15.242 26.1808 15.0769C26.1808 15.0478 26.0399 15.0963 25.8803 15.1837C25.7112 15.2808 25.3355 15.4264 25.0537 15.5138L24.5464 15.6789L24.0862 15.3585C23.8325 15.1837 23.4756 14.9895 23.2877 14.9312C22.8087 14.7953 22.076 14.8147 21.6439 14.9701C20.4698 15.407 19.7277 16.5334 19.8122 17.7665Z" fill="#0A110B"/>
</svg>
