<svg width="1280" height="343" viewBox="0 0 1280 343" fill="none" xmlns="http://www.w3.org/2000/svg">
<path d="M1130.9 65.396C1130.9 90.4776 1109.17 110.81 1082.36 110.81C1055.55 110.81 1030.87 90.4776 1030.87 65.396C1030.87 40.3144 1055.55 5 1082.36 5C1109.17 5 1130.9 40.3144 1130.9 65.396Z" fill="#6CE89A"/>
<path d="M1054.21 171.665C1054.21 196.747 1032.47 217.08 1005.66 217.08C978.854 217.08 939 196.747 939 171.665C939 146.584 978.854 126.251 1005.66 126.251C1032.47 126.251 1054.21 146.584 1054.21 171.665Z" fill="#6CE89A"/>
<path d="M1193.96 105.93C1193.96 131.011 1154.52 161.674 1127.71 161.674C1100.91 161.674 1079.17 141.342 1079.17 116.26C1079.17 91.1784 1100.91 70.8457 1127.71 70.8457C1154.52 70.8457 1193.96 80.8479 1193.96 105.93Z" fill="#6CE89A"/>
<path d="M1216.29 177.684C1216.29 202.766 1183.93 217.08 1157.12 217.08C1130.31 217.08 1108.58 196.747 1108.58 171.665C1108.58 146.584 1130.31 126.251 1157.12 126.251C1183.93 126.251 1216.29 152.602 1216.29 177.684Z" fill="#6CE89A"/>
<path d="M1091.1 116.26C1091.1 141.342 1069.37 161.674 1042.56 161.674C1015.75 161.674 982.827 131.011 982.827 105.93C982.827 80.8479 1015.75 70.8457 1042.56 70.8457C1069.37 70.8457 1091.1 91.1784 1091.1 116.26Z" fill="#6CE89A"/>
<path d="M1140.13 186.198C1140.13 211.28 1109.17 217.08 1082.36 217.08C1055.55 217.08 1033.82 211.28 1033.82 186.198C1033.82 161.116 1055.55 126.251 1082.36 126.251C1109.17 126.251 1140.13 161.116 1140.13 186.198Z" fill="#6CE89A"/>
<path d="M1085.01 165.271C1085.01 155.909 1083.08 153.828 1082.6 150.707C1082.11 147.586 1082.96 133.972 1081.63 123.313C1078.9 101.308 1077.29 171.859 1078.26 179.835C1053.68 177.061 1047.41 167.698 1047.41 167.698C1047.41 167.698 1053.68 185.383 1078.26 184.69C1078.26 190.584 1077.78 307.095 1077.78 307.095H1085.01V196.133V188.851V170.126C1110.07 165.271 1115.37 150.707 1115.37 150.707C1115.37 150.707 1103.8 165.271 1085.01 165.271Z" fill="#121212" stroke="#121212" stroke-width="1.1519"/>
<path d="M248 50C248 77.6142 225.614 100 198 100C170.386 100 148 77.6142 148 50C148 22.3858 170.386 0 198 0C225.614 0 248 22.3858 248 50Z" fill="#6CE89A"/>
<path d="M169 167C169 194.614 150.075 206.5 119 217C90.5 226.63 60 214.114 60 186.5C60 158.886 91.3858 117 119 117C146.614 117 169 139.386 169 167Z" fill="#6CE89A"/>
<path d="M299 106C299 133.614 266.614 160 239 160C211.386 160 189 137.614 189 110C189 82.3858 211.386 60 239 60C266.614 60 299 78.3858 299 106Z" fill="#6CE89A"/>
<path d="M329.413 186.5C329.413 214.114 302.614 217 275 217C247.386 217 225 194.614 225 167C225 139.386 246.299 126 273.913 126C301.528 126 329.413 158.886 329.413 186.5Z" fill="#6CE89A"/>
<path d="M207 106C207 133.614 184.614 156 157 156C129.386 156 107 133.614 107 106C107 78.3858 129.386 56 157 56C184.614 56 207 78.3858 207 106Z" fill="#6CE89A"/>
<path d="M257.5 186.5C257.5 213.709 263.325 245.065 200.837 221.585C199.057 220.917 196.959 220.987 195.222 221.759C133.492 249.186 150.075 204.713 150.075 177.5C150.075 149.886 172.46 111.5 200.075 111.5C227.689 111.5 257.5 158.886 257.5 186.5Z" fill="#6CE89A"/>
<path d="M200.723 159.856C200.723 149.548 198.738 147.257 198.241 143.821C197.745 140.385 198.612 125.396 197.248 113.661C194.433 89.4335 192.78 167.109 193.773 175.89C168.454 172.836 162 162.528 162 162.528C162 162.528 168.454 181.998 193.773 181.235C193.773 187.725 193.277 316 193.277 316H200.723V193.833V185.816V165.2C226.539 159.856 232 143.821 232 143.821C232 143.821 220.085 159.856 200.723 159.856Z" fill="#121212" stroke="#121212"/>
<g clip-path="url(#clip0_53_447)">
<circle cx="-16" cy="321" r="40" fill="#EEFFA8"/>
<circle cx="55" cy="319" r="50" fill="#EEFFA8"/>
<circle cx="105" cy="316" r="25" fill="#EEFFA8"/>
<circle cx="182" cy="319" r="70" fill="#EEFFA8"/>
<circle cx="548" cy="333" r="70" fill="#EEFFA8"/>
<circle cx="634" cy="351" r="70" fill="#EEFFA8"/>
<circle cx="729" cy="351" r="70" fill="#EEFFA8"/>
<circle cx="268" cy="321" r="40" fill="#EEFFA8"/>
<circle cx="411" cy="313" r="32" fill="#EEFFA8"/>
<circle cx="468" cy="329" r="40" fill="#EEFFA8"/>
<circle cx="337" cy="349" r="60" fill="#EEFFA8"/>
<circle cx="750" cy="321" r="30" fill="#EEFFA8"/>
<circle cx="810" cy="329" r="60" fill="#EEFFA8"/>
<circle cx="880" cy="321" r="40" fill="#EEFFA8"/>
<circle cx="951" cy="319" r="50" fill="#EEFFA8"/>
<circle cx="1001" cy="316" r="25" fill="#EEFFA8"/>
<circle cx="1078" cy="319" r="70" fill="#EEFFA8"/>
<circle cx="1164" cy="321" r="40" fill="#EEFFA8"/>
<circle cx="1307" cy="313" r="32" fill="#EEFFA8"/>
<circle cx="1233" cy="349" r="60" fill="#EEFFA8"/>
<circle cx="30" cy="351" r="30" fill="#F3F9FA"/>
<circle cx="90" cy="359" r="60" fill="#F3F9FA"/>
<circle cx="160" cy="351" r="40" fill="#F3F9FA"/>
<circle cx="231" cy="349" r="50" fill="#F3F9FA"/>
<circle cx="281" cy="346" r="25" fill="#F3F9FA"/>
<circle cx="358" cy="349" r="70" fill="#F3F9FA"/>
<circle cx="444" cy="351" r="40" fill="#F3F9FA"/>
<circle cx="587" cy="343" r="32" fill="#F3F9FA"/>
<circle cx="644" cy="359" r="40" fill="#F3F9FA"/>
<circle cx="513" cy="379" r="60" fill="#F3F9FA"/>
<circle cx="639" cy="359" r="30" fill="#F3F9FA"/>
<circle cx="699" cy="377" r="60" fill="#F3F9FA"/>
<circle cx="769" cy="359" r="40" fill="#F3F9FA"/>
<circle cx="840" cy="357" r="50" fill="#F3F9FA"/>
<circle cx="890" cy="354" r="25" fill="#F3F9FA"/>
<circle cx="967" cy="357" r="70" fill="#F3F9FA"/>
<circle cx="1053" cy="359" r="40" fill="#F3F9FA"/>
<circle cx="1196" cy="351" r="32" fill="#F3F9FA"/>
<circle cx="1253" cy="367" r="40" fill="#F3F9FA"/>
<circle cx="1122" cy="387" r="60" fill="#F3F9FA"/>
<circle cx="930" cy="387" r="60" fill="#F3F9FA"/>
<circle cx="1000" cy="379" r="40" fill="#F3F9FA"/>
<circle cx="1071" cy="377" r="50" fill="#F3F9FA"/>
<circle cx="1198" cy="377" r="70" fill="#F3F9FA"/>
<circle cx="1284" cy="379" r="40" fill="#F3F9FA"/>
</g>
<defs>
<clipPath id="clip0_53_447">
<rect width="1280" height="145" fill="white" transform="translate(0 198)"/>
</clipPath>
</defs>
</svg>
