<svg width="143" height="40" viewBox="0 0 143 40" fill="none" xmlns="http://www.w3.org/2000/svg">
<path d="M14.9207 34.7464L14.9225 34.7434L22.145 23.0069L25.5045 24.8883L19.0582 37.0598L14.9207 34.7464ZM14.5695 15.112L20.9708 2.94046L25.0635 5.2982L25.0613 5.30176L17.8391 17.0379L14.5695 15.112ZM26.8787 17.6739L34.3619 29.2593L30.2241 31.688H30.1943L23.5638 19.6449L26.8787 17.6739ZM4.75597 22.9562L18.5056 23.3619L18.5952 27.1691L4.75597 27.7552V22.983V22.9562ZM21.4787 12.8309L35.3184 12.2448L35.3633 16.9992H35.3363H35.3361L21.4787 16.6832V12.8309ZM13.1053 22.2809L5.71219 10.6503L9.79326 8.22854L16.3749 20.3549L13.1053 22.2809Z" fill="#0A110B" stroke="#0A110B" stroke-width="0.0357346"/>
<path d="M51.4193 10.8H57.5553C59.4967 10.8 60.996 11.2333 62.0533 12.1C63.1107 12.9667 63.6393 14.128 63.6393 15.584C63.6393 16.5027 63.414 17.274 62.9633 17.898C62.53 18.5047 61.776 19.0073 60.7013 19.406C62.1227 19.7353 63.1367 20.2813 63.7433 21.044C64.35 21.8067 64.6533 22.786 64.6533 23.982C64.6533 24.9873 64.3847 25.8713 63.8473 26.634C63.3273 27.3793 62.582 27.96 61.6113 28.376C60.6407 28.792 59.5053 29 58.2053 29H51.4193V10.8ZM57.8673 25.724C59.93 25.724 60.9613 24.9527 60.9613 23.41C60.9613 22.734 60.6927 22.214 60.1553 21.85C59.618 21.4687 58.8553 21.278 57.8673 21.278H55.0593V25.724H57.8673ZM57.2173 18.314C58.188 18.314 58.8813 18.1407 59.2973 17.794C59.7307 17.4473 59.9473 16.9013 59.9473 16.156C59.9473 14.752 59.0373 14.05 57.2173 14.05H55.0593V18.314H57.2173ZM66.089 15.48H69.599V29H66.089V15.48ZM65.725 12.282C65.725 11.71 65.9243 11.2247 66.323 10.826C66.739 10.4273 67.2417 10.228 67.831 10.228C68.4377 10.228 68.9403 10.4273 69.339 10.826C69.7377 11.2247 69.937 11.71 69.937 12.282C69.937 12.8713 69.7377 13.3653 69.339 13.764C68.9403 14.1627 68.4377 14.362 67.831 14.362C67.2417 14.362 66.739 14.1627 66.323 13.764C65.9243 13.348 65.725 12.854 65.725 12.282ZM78.3569 29.338C76.9876 29.338 75.7569 29.026 74.6649 28.402C73.5729 27.7607 72.7149 26.9027 72.0909 25.828C71.4669 24.736 71.1549 23.5487 71.1549 22.266C71.1549 20.9833 71.4669 19.796 72.0909 18.704C72.7149 17.612 73.5729 16.754 74.6649 16.13C75.7569 15.4887 76.9876 15.168 78.3569 15.168C79.7263 15.168 80.9569 15.4887 82.0489 16.13C83.1409 16.754 83.9989 17.612 84.6229 18.704C85.2469 19.796 85.5589 20.9833 85.5589 22.266C85.5589 23.5487 85.2469 24.736 84.6229 25.828C83.9989 26.9027 83.1409 27.7607 82.0489 28.402C80.9569 29.026 79.7263 29.338 78.3569 29.338ZM74.6649 22.266C74.6649 22.9767 74.8123 23.6267 75.1069 24.216C75.4189 24.8053 75.8523 25.2733 76.4069 25.62C76.9789 25.9667 77.6289 26.14 78.3569 26.14C79.0849 26.14 79.7263 25.9667 80.2809 25.62C80.8529 25.2733 81.2863 24.8053 81.5809 24.216C81.8929 23.6267 82.0489 22.9767 82.0489 22.266C82.0489 21.5553 81.8929 20.9053 81.5809 20.316C81.2689 19.7267 80.8356 19.2587 80.2809 18.912C79.7263 18.548 79.0849 18.366 78.3569 18.366C77.6289 18.366 76.9876 18.548 76.4329 18.912C75.8783 19.2587 75.4449 19.7267 75.1329 20.316C74.8209 20.9053 74.6649 21.5553 74.6649 22.266ZM92.7926 29.338C91.2846 29.338 89.9326 29.026 88.7366 28.402C87.558 27.7607 86.5873 26.764 85.8246 25.412L88.9706 23.41C89.4213 24.3113 89.9933 24.9873 90.6866 25.438C91.3973 25.8713 92.1686 26.088 93.0006 26.088C93.8326 26.088 94.4913 25.8973 94.9766 25.516C95.4793 25.1347 95.7306 24.632 95.7306 24.008C95.7306 23.436 95.5486 22.968 95.1846 22.604C94.8206 22.24 94.3526 21.954 93.7806 21.746C93.226 21.5207 92.4893 21.2867 91.5706 21.044C90.1146 20.6627 88.9793 20.0473 88.1646 19.198C87.3673 18.3487 86.9686 17.2567 86.9686 15.922C86.9686 14.8473 87.2373 13.9027 87.7746 13.088C88.312 12.256 89.066 11.6147 90.0366 11.164C91.0073 10.7133 92.1253 10.488 93.3906 10.488C94.76 10.488 95.9213 10.774 96.8746 11.346C97.8453 11.918 98.686 12.7587 99.3966 13.868L96.2766 15.792C95.826 15.064 95.3666 14.544 94.8986 14.232C94.4306 13.9027 93.8673 13.738 93.2086 13.738C92.4633 13.738 91.8566 13.92 91.3886 14.284C90.9206 14.648 90.6866 15.1333 90.6866 15.74C90.6866 16.3467 90.9206 16.806 91.3886 17.118C91.8566 17.4127 92.5846 17.716 93.5726 18.028C94.786 18.4093 95.7566 18.7647 96.4846 19.094C97.2126 19.4233 97.8886 19.978 98.5126 20.758C99.1366 21.5207 99.4486 22.5347 99.4486 23.8C99.4486 24.892 99.18 25.8627 98.6426 26.712C98.1053 27.544 97.334 28.194 96.3286 28.662C95.3233 29.1127 94.1446 29.338 92.7926 29.338ZM101.516 34.434C100.545 34.434 99.7652 34.3473 99.1758 34.174L99.6958 30.82C100.181 30.9413 100.71 31.002 101.282 31.002C101.923 31.002 102.461 30.8113 102.894 30.43C103.345 30.066 103.674 29.572 103.882 28.948L104.064 28.376L98.7078 15.48H102.946L105.572 23.202C105.815 23.8607 106.005 24.58 106.144 25.36C106.283 24.58 106.473 23.8607 106.716 23.202L109.342 15.48H113.502L107.522 29.858C106.898 31.3313 106.109 32.458 105.156 33.238C104.22 34.0353 103.007 34.434 101.516 34.434ZM114.153 15.48H117.611V17.456C118.322 15.9307 119.7 15.168 121.745 15.168C122.716 15.168 123.591 15.402 124.371 15.87C125.151 16.3207 125.767 16.9707 126.217 17.82C126.668 18.652 126.893 19.6227 126.893 20.732V29H123.383V21.59C123.383 20.4633 123.123 19.6227 122.603 19.068C122.083 18.5133 121.373 18.236 120.471 18.236C119.674 18.236 119.007 18.522 118.469 19.094C117.932 19.6487 117.663 20.4807 117.663 21.59V29H114.153V15.48ZM135.303 29.338C134.037 29.338 132.867 29.026 131.793 28.402C130.735 27.7607 129.895 26.894 129.271 25.802C128.647 24.71 128.335 23.5227 128.335 22.24C128.335 20.94 128.647 19.7527 129.271 18.678C129.895 17.586 130.761 16.728 131.871 16.104C132.98 15.4627 134.219 15.142 135.589 15.142C136.785 15.142 137.859 15.3673 138.813 15.818C139.766 16.2513 140.529 16.8667 141.101 17.664L138.397 19.874C138.085 19.406 137.677 19.0333 137.175 18.756C136.672 18.4787 136.126 18.34 135.537 18.34C134.809 18.34 134.167 18.522 133.613 18.886C133.058 19.2327 132.625 19.7007 132.313 20.29C132.001 20.8793 131.845 21.5293 131.845 22.24C131.845 22.9333 132.001 23.5833 132.313 24.19C132.642 24.7793 133.093 25.256 133.665 25.62C134.237 25.9667 134.887 26.14 135.615 26.14C136.256 26.14 136.811 26.0013 137.279 25.724C137.747 25.4467 138.171 25.048 138.553 24.528L141.101 26.738C139.749 28.4713 137.816 29.338 135.303 29.338Z" fill="#0A110B"/>
</svg>
